<svg width="173" height="161" viewBox="0 0 173 161" fill="none" xmlns="http://www.w3.org/2000/svg">
<path d="M58.9345 92.403L74.6016 71.6333L39.7288 63.6094C36.653 64.0209 33.8138 66.0268 32.2604 68.8661C30.7071 71.7053 30.5013 75.3161 31.7049 78.3405C33.176 82.0439 36.4781 84.5642 39.8831 86.3336C43.9464 88.4527 54.686 90.0267 59.1711 90.0267" fill="#009CE1"/>
<path d="M59.5386 92.8743L75.9258 71.1582L39.7568 62.8359L39.6128 62.8565C36.3107 63.2988 33.2349 65.4694 31.5787 68.5144C29.9328 71.5388 29.6962 75.4171 30.982 78.6472C32.309 81.9905 35.1071 84.7372 39.5202 87.0415C43.779 89.2635 54.8066 90.8169 59.158 90.8169V89.2738C54.9404 89.2738 44.2934 87.7925 40.23 85.6733C36.1564 83.5542 33.6052 81.0647 32.4222 78.0814C31.3112 75.273 31.5067 71.8989 32.9468 69.2551C34.3459 66.673 36.9279 64.8316 39.6951 64.4099L73.2717 72.1355L58.3248 91.9485L59.5592 92.8743H59.5386Z" fill="#231815"/>
<path d="M23.3316 110.324C23.3316 110.324 27.0697 110.174 32.9378 110.034L38.7375 96.0547C38.7375 96.0547 113.723 107.083 128.958 113.134C128.958 113.134 138.17 119.666 118.47 118.007C98.7702 116.347 78.822 113.792 78.822 113.792" fill="white"/>
<path d="M33.4029 110.501L39.0152 96.4689C63.3065 100.675 108.882 108.631 110.741 109.224L111.109 107.91C108.685 107.134 41.5771 95.5201 38.7239 95.0274L38.2269 94.9453L32.2205 109.963L33.4029 110.501Z" fill="#231815"/>
<path d="M33.4029 110.501L39.0152 96.4689C63.3065 100.675 108.882 108.631 110.741 109.224L111.109 107.91C108.685 107.134 41.5771 95.5201 38.7239 95.0274L38.2269 94.9453L32.2205 109.963L33.4029 110.501Z" fill="#231815"/>
<path d="M33.4029 110.501L39.0152 96.4689C63.3065 100.675 108.882 108.631 110.741 109.224L111.109 107.91C108.685 107.134 41.5771 95.5201 38.7239 95.0274L38.2269 94.9453L32.2205 109.963L33.4029 110.501Z" fill="#231815"/>
<path d="M108.839 105.562C111.853 106.066 114.548 105.737 116.925 104.574C118.272 103.916 119.26 103.309 119.898 102.743C120.7 101.982 121.338 100.943 121.79 99.616C122.397 97.8878 122.521 96.1596 122.151 94.4416C121.688 92.2916 120.525 90.5942 118.684 89.3495C116.791 88.0842 114.507 88.5162 110.393 88.4545C107.965 88.4134 106.226 86.9732 104.796 85.9548C103.284 84.8129 100.455 83.0126 98.1202 80.9141L93.419 81.6136C92.6578 82.8583 92.5961 85.2861 92.3595 86.7057C92.2875 89.1952 92.8841 91.8801 94.1494 94.7502C95.425 97.5689 97.5029 99.9555 100.373 101.9C103.243 103.844 106.072 105.068 108.849 105.562H108.839Z" fill="#009CE1"/>
<path d="M111.511 106.448C113.589 106.448 115.503 106.016 117.241 105.162C118.651 104.473 119.669 103.845 120.358 103.238C121.253 102.385 121.953 101.243 122.436 99.8231C123.084 97.9817 123.208 96.1197 122.817 94.2886C122.313 91.974 121.047 90.1223 119.062 88.7747C117.437 87.6843 115.575 87.7151 112.993 87.7563C112.221 87.7666 111.357 87.7768 110.411 87.7563C108.425 87.7151 106.934 86.635 105.607 85.6783L105.195 85.38C104.763 85.0508 104.208 84.6599 103.58 84.2278C102.078 83.1682 100.206 81.8515 98.5807 80.3907C98.303 80.1438 97.8812 80.1644 97.6343 80.4421C97.3874 80.7199 97.408 81.1417 97.6857 81.3885C99.3728 82.9008 101.276 84.2484 102.809 85.3285C103.416 85.7606 103.961 86.1412 104.403 86.4704L104.825 86.7687C106.234 87.7871 107.983 89.0524 110.39 89.1039C111.357 89.1142 112.232 89.1039 113.013 89.0936C115.523 89.0627 117.036 89.0319 118.311 89.8857C120.019 91.0379 121.068 92.5706 121.5 94.5561C121.84 96.1403 121.726 97.7656 121.161 99.3704C120.739 100.584 120.163 101.551 119.443 102.23C118.867 102.734 117.92 103.321 116.634 103.938C114.402 105.039 111.82 105.347 108.96 104.864C106.296 104.391 103.529 103.197 100.751 101.315C97.9944 99.4527 95.9781 97.1381 94.7643 94.4429C93.5504 91.686 92.9743 89.073 93.036 86.6967C93.0463 86.3264 92.7583 86.0178 92.3777 86.0075C92.0073 86.0178 91.6987 86.2955 91.6884 86.6658C91.6164 89.2479 92.2337 92.046 93.5298 94.9984C94.8568 97.9302 97.0274 100.43 99.99 102.436C102.932 104.421 105.864 105.687 108.724 106.201C109.67 106.366 110.596 106.438 111.491 106.438L111.511 106.448Z" fill="#231815"/>
<path d="M24.2596 132.526H37.6121C40.5233 132.526 45.5434 132.145 51.0469 128.36C56.5504 124.574 62.9386 121.488 71.0345 121.91C71.0345 121.91 74.5938 122.774 74.5938 117.013C74.5938 111.252 66.4259 112.116 64.6463 112.116C62.8666 112.116 55.3468 113.834 48.7838 119.935C42.2207 126.035 31.3885 122.681 29.9277 121.91C28.467 121.138 21.5953 119.42 18.8384 126.806C17.3056 131.538 22.5623 132.516 24.2596 132.516V132.526Z" fill="white"/>
<path d="M40.4883 123.423C38.7086 123.598 36.9701 123.516 35.4168 123.32C34.6761 124.946 33.74 127.939 33.8326 132.527H37.6182C38.2354 132.527 38.9555 132.507 39.7373 132.445C39.4905 127.878 40.0665 124.915 40.4883 123.433V123.423Z" fill="#231815"/>
<path d="M30.4219 122.111C30.2058 122.028 30.0412 121.956 29.9281 121.895C28.4673 121.123 21.5956 119.405 18.8387 126.791C17.306 131.523 22.5626 132.501 24.26 132.501H27.1609C27.5415 126.277 29.136 123.407 30.4219 122.1V122.111Z" fill="#231815"/>
<path d="M48.7831 119.937C47.3121 121.305 45.625 122.2 43.8762 122.745C43.9894 124.618 44.5346 127.539 46.4789 130.831C47.9396 130.235 49.4724 129.432 51.0566 128.352C51.6121 127.971 52.1778 127.601 52.7539 127.231C50.3776 124.474 49.2975 121.706 48.814 119.906C48.814 119.906 48.7934 119.917 48.7934 119.927L48.7831 119.937Z" fill="#231815"/>
<path d="M65.8073 112.075C67.268 113.906 69.3151 117.372 68.6362 121.888C69.418 121.868 70.2101 121.858 71.0227 121.909C71.0227 121.909 74.582 122.773 74.582 117.012C74.582 112.105 68.6567 112.003 65.797 112.085L65.8073 112.075Z" fill="#231815"/>
<path d="M54.1827 115.898C54.5016 117.852 55.3246 121.381 57.2688 124.724C59.1925 123.819 61.2396 123.068 63.4102 122.574C62.4638 117.698 60.9721 114.622 60.0978 113.141C58.3695 113.737 56.3224 114.622 54.1827 115.898Z" fill="#231815"/>
<path d="M24.2679 133.297H37.6204C39.5029 133.297 45.2327 133.297 51.4872 128.997C56.0958 125.829 62.4531 122.249 70.9399 122.681C71.2794 122.743 72.5035 122.887 73.6042 122.013C74.7666 121.097 75.3633 119.41 75.3633 117.013C75.3633 115.511 74.8695 114.277 73.9025 113.34C71.5983 111.118 67.3189 111.262 65.2615 111.324C65.0146 111.324 64.7986 111.345 64.6443 111.345C62.5766 111.345 54.8408 113.248 48.2571 119.379C43.5354 123.772 36.3963 122.835 33.5468 122.229C33.1353 122.136 32.7238 122.403 32.6312 122.825C32.5386 123.247 32.8061 123.648 33.2279 123.741C37.0649 124.553 44.2555 125.222 49.3167 120.511C56.0752 114.215 63.4715 112.898 64.6443 112.898C64.8191 112.898 65.0454 112.898 65.3129 112.878C67.0103 112.816 71.0016 112.682 72.8327 114.451C73.5013 115.1 73.8202 115.933 73.8202 117.023C73.8202 118.885 73.419 120.192 72.6681 120.799C71.9994 121.334 71.2382 121.179 71.2074 121.169C71.1662 121.169 71.1148 121.148 71.0736 121.148C62.1034 120.665 55.4271 124.409 50.6128 127.732C44.7493 131.765 39.3795 131.765 37.6204 131.765H24.2679C23.054 131.765 20.7704 131.271 19.8137 129.954C19.2685 129.203 19.1861 128.257 19.577 127.063C20.4514 124.708 21.8711 123.134 23.7742 122.403C26.1402 121.508 28.7325 122.167 29.5657 122.599C29.8023 122.722 30.1726 122.877 30.6356 123.031C31.0367 123.165 31.4791 122.959 31.6128 122.547C31.7465 122.146 31.5408 121.704 31.1293 121.57C30.5841 121.385 30.3372 121.262 30.2755 121.231C29.432 120.788 26.3253 119.77 23.2186 120.953C20.8732 121.848 19.1553 123.72 18.106 126.539C17.5505 128.247 17.7048 129.676 18.5484 130.849C19.9577 132.783 22.8895 133.297 24.2473 133.297H24.2679Z" fill="#231815"/>
<path d="M61.9148 132.538C61.9148 132.538 73.2305 132.538 74.4958 132.538C75.7611 132.538 78.1477 132.61 78.1477 130.676C78.1477 129.267 76.8001 128.763 76.0697 128.598C76.1932 128.001 76.3577 127.024 77.2116 127.024C78.0654 127.024 79.7833 127.024 81.0177 127.024H84.145C85.8629 127.024 86.1406 130.038 86.0172 131.118C85.9349 131.88 86.511 132.538 87.2825 132.538H89.381C93.1255 132.538 102.127 132.538 103.124 132.538H103.145C104.41 132.538 106.797 132.61 106.797 130.676C106.797 129.637 106.066 129.092 105.398 128.804C105.1 128.68 104.41 128.423 104.41 128.423C104.41 128.423 104.585 127.58 104.678 127.271C105.398 124.915 106.797 119.329 106.797 111.501C106.797 96.6359 99.3491 86.071 91.5722 82.666C84.4742 79.5696 76.975 83.0158 76.975 83.0158C76.975 83.0158 68.5499 81.6476 62.3572 85.2686C55.1152 89.5069 49.9305 99.7735 49.9305 115.091C49.9305 125.604 51.9365 129.431 51.9365 129.431C53.6441 132.342 53.2944 132.538 61.9457 132.538H61.9251H61.9148Z" fill="#009CE1"/>
<path d="M102.242 100.818C102.973 99.7073 104.31 100.376 105.051 100.705C105.894 103.03 106.481 105.653 106.707 108.636C103.96 106.301 101.42 102.084 102.242 100.829V100.818Z" fill="#231815"/>
<path d="M105.146 115.387C105.413 114.503 105.814 114.122 106.781 113.875C106.699 116.241 106.493 118.36 106.226 120.212C104.744 118.772 104.775 116.653 105.146 115.387Z" fill="#231815"/>
<path d="M49.9534 115.48C51.3216 114.781 52.988 114.051 54.85 113.526C59.7054 112.158 59.7054 116.056 56.6193 118.433C55.0146 119.667 52.4737 121.488 50.3957 122.959C50.1488 120.994 49.9637 118.525 49.9431 115.48H49.9534Z" fill="#231815"/>
<path d="M50.7766 105.162C51.0338 103.67 51.363 102.251 51.7333 100.903C52.2579 100.224 52.9472 99.5762 53.8833 99.0104C56.8562 97.1999 62.8329 97.0867 63.9954 99.463C65.1578 101.839 60.0966 104.977 55.4469 107.003C53.1529 108.001 51.3321 106.931 50.7663 105.162H50.7766Z" fill="#231815"/>
<path d="M104.937 127.277C105.277 127.277 105.585 127.051 105.678 126.711C106.398 124.14 107.602 118.76 107.602 111.517C107.602 103.812 105.441 97.4344 101.172 92.5583C100.894 92.2394 100.401 92.2085 100.082 92.4863C99.7629 92.764 99.732 93.2578 100.01 93.5767C104.022 98.1648 106.059 104.203 106.059 111.528C106.059 118.852 104.886 123.821 104.197 126.31C104.083 126.722 104.32 127.144 104.732 127.257C104.804 127.277 104.876 127.288 104.937 127.288V127.277Z" fill="#231815"/>
<path d="M74.818 133.3C75.8879 133.3 77.3898 133.259 78.2847 132.364C78.7271 131.922 78.9534 131.356 78.9534 130.656C78.9534 129.473 78.2642 128.547 77.0297 128.054C77.0914 127.879 77.1635 127.776 77.2458 127.776H84.1792C84.3026 127.776 84.4569 127.807 84.6318 128.002C85.2182 128.661 85.3622 130.286 85.2799 131.016C85.2182 131.603 85.4033 132.179 85.7942 132.621C86.1851 133.053 86.7303 133.3 87.3167 133.3H103.292C104.362 133.3 105.977 133.3 106.913 132.364C107.356 131.922 107.582 131.356 107.582 130.656C107.582 129.504 106.913 128.589 105.71 128.074C105.432 127.951 104.794 127.632 104.794 127.632L104.084 129C104.084 129 104.794 129.37 105.113 129.504C105.946 129.854 106.039 130.327 106.039 130.656C106.039 131.016 105.916 131.181 105.823 131.263C105.339 131.747 104.064 131.747 103.292 131.747H87.3167C87.1212 131.747 86.9978 131.644 86.9464 131.582C86.8846 131.52 86.8024 131.376 86.8229 131.181C86.9052 130.481 86.8744 128.187 85.7839 126.973C85.3519 126.49 84.7964 126.233 84.1792 126.233H77.2458C75.7953 126.233 75.497 127.704 75.3632 128.331C75.2809 128.743 75.5176 129.226 75.929 129.319C76.5977 129.473 77.4104 129.833 77.4104 130.646C77.4104 131.006 77.2869 131.171 77.1943 131.253C76.7108 131.736 75.425 131.736 74.6637 131.736H61.9388C54.1721 131.736 54.1412 131.695 52.8451 129.442L52.5982 129.021C52.5982 129.021 50.7054 125.214 50.7054 115.143C50.7157 115.082 50.726 115.01 50.726 114.979C50.726 100.926 55.1185 90.2999 62.772 85.825C68.6561 82.3891 76.8034 83.6544 76.8857 83.6647C77.3075 83.7367 77.6984 83.4487 77.7704 83.0269C77.8424 82.6051 77.5544 82.2142 77.1326 82.1422C76.7726 82.0908 68.3578 80.774 62.0005 84.498C53.8738 89.2506 49.2035 100.33 49.1932 114.907C49.1829 114.968 49.1726 115.04 49.1726 115.071C49.1726 125.657 51.1786 129.607 51.2609 129.772L51.5181 130.224C53.2051 133.146 53.6989 133.29 61.949 133.29H74.8283L74.818 133.3Z" fill="#231815"/>
<path d="M83.2445 127.792C83.2445 127.792 83.2754 127.792 83.2857 127.792C83.2959 127.792 84.5201 127.731 88.1308 127.731C88.5526 127.731 88.9023 127.381 88.9023 126.959C88.9023 126.537 88.5526 126.188 88.1308 126.188C84.4584 126.188 83.2445 126.249 83.1931 126.249C82.7713 126.27 82.4421 126.64 82.4627 127.062C82.4833 127.473 82.8227 127.792 83.2342 127.792H83.2445Z" fill="#231815"/>
<path d="M101.716 122.099C110.779 122.099 118.145 114.445 118.145 105.022C118.145 95.5989 110.769 87.9453 101.716 87.9453C92.6637 87.9453 85.288 95.6092 85.288 105.022C85.288 114.435 92.6637 122.099 101.716 122.099ZM101.716 91.0417C109.071 91.0417 115.058 97.3169 115.058 105.032C115.058 112.748 109.071 119.023 101.716 119.023C94.3611 119.023 88.3741 112.748 88.3741 105.032C88.3741 97.3169 94.3611 91.0417 101.716 91.0417Z" fill="#595757"/>
<path d="M101.719 107.957C100.168 107.957 98.9107 106.543 98.9107 104.799C98.9107 103.055 100.168 101.641 101.719 101.641C103.27 101.641 104.527 103.055 104.527 104.799C104.527 106.543 103.27 107.957 101.719 107.957Z" fill="#595757"/>
<path d="M101.753 106.609L116.648 103.595L116.041 100.57L101.701 103.471L87.2894 101.013L86.7751 104.047L101.753 106.609Z" fill="#595757"/>
<path d="M100.176 105.023H103.262V121.071H100.176V105.023Z" fill="#595757"/>
<path d="M81.1507 111.914C81.4696 111.914 81.7885 111.914 82.1074 111.893C85.317 111.688 88.0327 110.69 90.2033 108.921C91.4274 107.923 92.2812 107.069 92.8162 106.318C93.5054 105.269 93.9271 103.983 94.0815 102.47C94.2975 100.516 93.9889 98.654 93.1865 96.9463C92.1578 94.786 90.4913 93.2429 88.2282 92.3891C85.9239 91.525 82.7658 91.5559 78.5584 92.4714C76.357 92.9446 74.4951 92.8829 73.024 92.276C71.9233 91.7822 70.5654 91.1238 69.0224 90.3214C68.6418 90.126 68.1789 90.27 67.9834 90.6506C67.788 91.0312 67.932 91.4941 68.3126 91.6896C69.8865 92.5126 71.265 93.1915 72.4171 93.6956C74.1967 94.426 76.3673 94.5186 78.8773 93.9733C82.7349 93.1298 85.6873 93.0783 87.6727 93.819C89.5758 94.5391 90.9234 95.7839 91.7875 97.5944C92.4664 99.0449 92.7236 100.629 92.5487 102.306C92.4253 103.571 92.0858 104.62 91.5406 105.433C91.1085 106.05 90.3164 106.822 89.2157 107.717C87.3126 109.281 84.8849 110.165 82.0148 110.35C79.3197 110.484 76.3776 109.959 73.2503 108.766C70.1643 107.583 67.6851 105.804 65.8952 103.468C64.095 101.071 62.9428 98.6745 62.4696 96.3599C62.3873 95.9382 61.9758 95.6707 61.5541 95.7633C61.1323 95.8456 60.8648 96.2571 60.9574 96.6686C61.4821 99.2095 62.7268 101.812 64.671 104.404C66.6461 106.976 69.3413 108.921 72.7051 110.206C75.6678 111.338 78.507 111.914 81.1507 111.914Z" fill="#231815"/>
<path d="M82.037 111.117C85.0922 110.921 87.6331 109.985 89.6802 108.308C90.8426 107.362 91.6656 106.549 92.1594 105.85C92.7663 104.924 93.1469 103.761 93.2909 102.373C93.4864 100.552 93.2086 98.8442 92.468 97.2497C91.6553 95.5318 89.3099 93.7315 87.3451 92.7645C86.8307 92.5073 86.2032 92.6616 85.8535 93.1246C84.8659 94.4207 82.9422 97.2908 82.109 100.716C80.9671 105.428 82.0473 111.106 82.0473 111.106L82.037 111.117Z" fill="white"/>
<path d="M81.4115 111.922L82.0905 111.881C85.2897 111.675 88.0158 110.677 90.176 108.908C91.4002 107.91 92.254 107.056 92.7889 106.305C93.4781 105.256 93.8999 103.97 94.0542 102.458C94.2599 100.503 93.9616 98.6414 93.1592 96.9337C92.2334 94.9998 89.744 93.1069 87.6763 92.0885C86.8328 91.677 85.8041 91.9239 85.2383 92.6749C84.1582 94.1048 82.2139 97.0263 81.3601 100.555C80.1874 105.369 81.2469 111.027 81.2881 111.264L81.4115 111.932V111.922ZM86.8122 93.4258C86.8739 93.4258 86.9356 93.4361 86.9973 93.467C88.8181 94.362 91.0504 96.0696 91.7705 97.5921C92.4494 99.0426 92.7066 100.627 92.5317 102.304C92.4083 103.569 92.0688 104.618 91.5236 105.431C91.0916 106.038 90.2995 106.82 89.1988 107.715C87.45 109.155 85.2588 110.019 82.6871 110.286C82.4505 108.661 81.9876 104.464 82.8517 100.915C83.6438 97.6641 85.4543 94.938 86.4624 93.6007C86.5447 93.4875 86.6785 93.4258 86.8122 93.4258Z" fill="#231815"/>
<path d="M85.8194 11.4243C85.8194 17.0205 89.965 21.5674 95.0777 21.5674C100.19 21.5674 104.336 17.0308 104.336 11.4243C104.336 5.82815 100.19 1.28125 95.0777 1.28125C89.965 1.28125 85.8194 5.81787 85.8194 11.4243Z" fill="white"/>
<path d="M103.471 16.4426C103.769 16.4426 104.057 16.2677 104.181 15.9693C104.788 14.5394 105.086 13.0067 105.086 11.4224C105.086 5.40448 100.591 0.507812 95.0561 0.507812C90.6328 0.507812 86.7854 3.59394 85.479 8.19228C85.3658 8.60376 85.6024 9.02554 86.0139 9.14898C86.4254 9.26214 86.8471 9.02554 86.9706 8.61406C88.0816 4.68438 91.3425 2.05088 95.0664 2.05088C99.747 2.05088 103.553 6.25831 103.553 11.4224C103.553 12.8009 103.286 14.1279 102.761 15.3727C102.596 15.7636 102.782 16.2162 103.173 16.3808C103.275 16.422 103.368 16.4426 103.471 16.4426Z" fill="#231815"/>
<path d="M64.3418 85.3925C64.3418 85.3925 36.1143 84.8267 36.1143 64.1599C36.1143 56.9075 37.4413 50.8792 41.2269 47.5668C41.2269 47.5668 38.1923 9.03125 75.462 9.03125C117.824 9.03125 114.717 47.5668 114.717 47.5668C120.9 50.2414 123.152 56.9075 123.152 64.1599C123.152 84.8267 86.5925 85.3925 86.5925 85.3925H64.3315H64.3418Z" fill="white"/>
<path d="M114.77 46.1531C115.192 46.1531 115.541 45.793 115.531 45.3712C115.418 36.6683 112.208 8.26562 75.4633 8.26562C72.8196 8.26562 70.2787 8.46108 67.9127 8.8417C67.4909 8.91371 67.2029 9.30462 67.2749 9.72639C67.3469 10.1482 67.7481 10.4362 68.1596 10.3642C70.4536 9.99386 72.9121 9.80869 75.4633 9.80869C110.799 9.80869 113.885 37.0387 113.988 45.3815C113.988 45.8033 114.338 46.1428 114.76 46.1428L114.77 46.1531Z" fill="#231815"/>
<path d="M41.1603 46.2146C41.5821 46.2146 41.9318 45.8752 41.9318 45.4431C41.9318 41.246 42.6108 30.5474 48.6389 22.0091C48.8858 21.6593 48.8035 21.1758 48.4538 20.9392C48.104 20.6923 47.6205 20.7746 47.3736 21.1244C41.0883 30.0124 40.3991 41.0916 40.3888 45.4431C40.3888 45.8649 40.7283 46.2146 41.1603 46.2146Z" fill="#231815"/>
<path d="M71.6152 86.1716C72.037 86.1716 72.3867 85.8218 72.3867 85.4001C72.3867 84.9783 72.037 84.6285 71.6152 84.6285H64.3423C64.0851 84.6285 36.8864 83.8364 36.8864 64.1675C36.8864 56.2464 38.4706 51.0102 41.7418 48.1607C42.0607 47.883 42.0916 47.3892 41.8139 47.0703C41.5361 46.7514 41.0423 46.7102 40.7234 46.9983C37.1024 50.1564 35.3433 55.7732 35.3433 64.1675C35.3433 85.3486 64.0337 86.1613 64.3217 86.1716H71.6152Z" fill="#231815"/>
<path d="M93.7208 85.593C93.7208 85.593 93.7825 85.593 93.8236 85.593C105.067 84.1631 123.934 79.4825 123.934 64.1753C123.934 55.5032 120.775 49.3515 115.035 46.8723C114.644 46.6975 114.192 46.8723 114.017 47.2735C113.852 47.6644 114.027 48.1171 114.418 48.292C121.002 51.1415 122.391 58.4968 122.391 64.1753C122.391 78.2995 104.368 82.7024 93.6282 84.0603C93.2064 84.1117 92.9081 84.5026 92.9595 84.9244C93.011 85.3153 93.3401 85.6033 93.7208 85.6033V85.593Z" fill="#231815"/>
<path d="M103.213 47.2128C103.213 48.6221 104.036 49.7537 105.044 49.7537C106.052 49.7537 106.875 48.6118 106.875 47.2128C106.875 45.8035 106.052 44.6719 105.044 44.6719C104.036 44.6719 103.213 45.8137 103.213 47.2128Z" fill="#231815"/>
<path d="M119.559 52.7202C119.971 52.8127 120.29 52.9156 120.773 53.1625C121.699 54.8496 122.326 56.7733 122.707 58.8307C121.843 58.1929 119.477 55.8886 116.895 54.397C115.043 53.3374 116.02 51.8972 119.57 52.7202H119.559Z" fill="#231815"/>
<path d="M119.538 64.9499C121.04 65.135 121.997 65.6905 122.984 66.4826C122.635 68.9104 121.75 71.0193 120.464 72.8607C119.26 70.1243 115.804 64.4767 119.538 64.9499Z" fill="#231815"/>
<path d="M82.2677 49.7537C80.8644 49.7537 79.7268 48.6161 79.7268 47.2128C79.7268 45.8095 80.8644 44.6719 82.2677 44.6719C83.671 44.6719 84.8086 45.8095 84.8086 47.2128C84.8086 48.6161 83.671 49.7537 82.2677 49.7537Z" fill="#231815"/>
<path d="M59.0732 52.5767C55.5962 53.482 52.4792 54.6136 50.4733 56.4653C46.5025 60.1378 47.7575 66.1146 57.3655 58.4404C60.1122 56.3007 63.8566 55.1588 66.5312 53.842C68.7429 52.7516 68.496 51.692 65.7906 51.8052C61.5832 51.9801 59.5567 52.4224 59.0629 52.5664L59.0732 52.5767Z" fill="#231815"/>
<path d="M83.802 16.6803H89.2747C89.2026 15.7441 89.717 14.8183 90.6222 14.4068C91.7847 13.8822 93.1528 14.4068 93.6775 15.5693C93.8318 15.919 93.9861 16.2996 94.1301 16.6803H99.3456C100.621 16.6803 101.66 17.7193 101.66 18.9949C101.66 20.2705 100.621 21.3095 99.3456 21.3095H95.3748C95.6217 22.5851 95.8172 23.8607 95.9612 25.0334H98.3889C99.6645 25.0334 100.703 26.0724 100.703 27.348C100.703 28.6236 99.6645 29.6626 98.3889 29.6626H96.3829C96.4138 30.1152 96.4241 30.4239 96.4241 30.4856C96.4652 31.7612 95.4674 32.831 94.1918 32.8825C94.161 32.8825 94.1404 32.8825 94.1095 32.8825C92.8751 32.8825 91.8464 31.9052 91.795 30.6502C91.795 30.6296 91.7744 30.2593 91.7435 29.6626H87.3407C86.0651 29.6626 85.0261 28.6236 85.0261 27.348C85.0261 26.0724 86.0651 25.0334 87.3407 25.0334H91.2806C91.116 23.8195 90.9103 22.5439 90.6325 21.3095H83.7711C82.4955 21.3095 81.4566 20.2705 81.4566 18.9949C81.4566 17.7193 82.4955 16.6803 83.7711 16.6803H83.802Z" fill="#231815"/>
<path d="M56.8874 64.8024C59.9118 63.3108 65.4771 62.1895 65.868 63.2799C66.2897 64.4527 62.2264 67.3948 60.3644 68.763C58.5025 70.1312 53.143 75.9845 50.7152 73.7111C48.2875 71.4376 50.4169 67.9914 56.8771 64.8024H56.8874Z" fill="#231815"/>
<path d="M55.3766 21.5674C49.7748 21.5674 45.2337 17.0262 45.2337 11.4243C45.2337 5.82247 49.7748 1.28125 55.3766 1.28125C60.9784 1.28125 65.5195 5.82247 65.5195 11.4243C65.5195 17.0262 60.9784 21.5674 55.3766 21.5674Z" fill="white"/>
<path d="M51.6213 21.6194C51.9299 21.6194 52.2179 21.4343 52.3414 21.1359C52.4957 20.745 52.3105 20.2924 51.9093 20.1381C48.3192 18.7082 46.0046 15.2929 46.0046 11.4249C46.0046 6.26079 50.212 2.05336 55.376 2.05336C60.5401 2.05336 64.7474 6.26079 64.7474 11.4249C64.7474 11.5998 64.7474 11.7747 64.7372 11.9496C64.7166 12.3713 65.0355 12.7417 65.4675 12.7622C65.9099 12.7931 66.2596 12.4639 66.2802 12.0319C66.2905 11.8261 66.3008 11.6204 66.3008 11.4146C66.3008 5.39667 61.4042 0.5 55.3863 0.5C49.3684 0.5 44.4718 5.39667 44.4718 11.4146C44.4718 15.9101 47.167 19.8912 51.3538 21.5577C51.4464 21.5989 51.539 21.6092 51.6419 21.6092L51.6213 21.6194Z" fill="#231815"/>
<path d="M168.113 126.312C165.481 131.217 161.882 135.078 158.268 138.048C151.114 143.942 143.885 146.341 143.885 146.341C110.772 160.619 4.31439 154.245 4.31439 154.245L5.4017 152.235L4.95929 148.681L0.617599 144.167C0.617599 144.167 13.7476 141.385 14.58 141.302C15.4198 141.22 62.2709 140.47 62.2709 140.47L138.269 131.637L168.113 126.32V126.312Z" fill="#816C51"/>
<path d="M6.9825 132.065L47.2124 129.111C47.2124 129.111 47.7148 130.363 70.9604 128.451C70.9604 128.451 103.062 130.858 104.929 125.774C106.796 120.69 86.7899 123.449 61.0472 124.574C35.3046 125.691 36.6019 125.744 36.6019 125.744L28.0685 125.399L28.8634 119.542L45.9151 115.516C45.9151 115.516 49.8444 121.447 55.1084 121.057C61.1222 120.615 97.1379 118.883 97.1379 118.883C97.1379 118.883 140.57 118.628 158.881 122.309C161.708 122.879 166.042 124.327 168.119 126.329C169.019 128.436 124.463 140.096 74.6497 142.008C24.8441 143.921 0.623718 144.183 0.623718 144.183L6.99751 132.08L6.9825 132.065Z" fill="#F8C057"/>
<path d="M5.39153 152.227L4.94911 148.673C96.1468 152.999 157.313 138.272 158.25 138.047C137.426 155.234 21.4385 152.662 5.39153 152.227Z" fill="#675641"/>
<path d="M92.6107 142.532C92.6107 142.532 148.925 140.462 164.77 129.102C164.77 129.102 150.837 147.031 121.188 150.923C91.5384 154.815 92.6182 142.539 92.6182 142.539L92.6107 142.532Z" fill="#ECEAF2"/>
<path d="M114.813 120.453C114.813 120.453 127.066 130.554 93.2321 136.44C93.2321 136.44 133.664 135.69 162.931 126.175C163.336 126.04 163.329 125.462 162.916 125.342C158.98 124.18 145.415 120.948 114.813 120.461V120.453Z" fill="#FFFFFB"/>
<path d="M56.1659 156.183C88.2673 156.183 126.578 154.406 144.102 146.854C144.357 146.772 151.473 144.372 158.619 138.478C162.698 135.127 165.96 131.295 168.315 127.073C168.765 126.661 168.705 126.286 168.622 126.091C168.592 126.016 168.547 125.956 168.495 125.903C166.163 123.654 161.416 122.229 158.979 121.741C140.825 118.097 97.5581 118.299 97.1231 118.307C96.7407 118.322 61.01 120.047 55.0561 120.482C50.1896 120.827 46.4103 115.248 46.3728 115.188C46.2453 114.993 46.0054 114.895 45.7729 114.955L28.7211 118.982C28.4962 119.034 28.3237 119.222 28.2937 119.454L27.4989 125.311C27.4764 125.468 27.5214 125.626 27.6263 125.746C27.7313 125.866 27.8738 125.941 28.0313 125.948L36.5647 126.293C36.6246 126.293 36.6771 126.293 36.7371 126.271C37.1645 126.233 40.1565 126.023 61.0625 125.116C67.1213 124.853 72.9402 124.493 78.0768 124.178C91.3418 123.361 102.792 122.649 104.337 124.726C104.449 124.876 104.562 125.108 104.389 125.566C103.137 128.978 83.2433 128.79 70.9906 127.875C70.9606 127.875 70.9306 127.875 70.9006 127.875C50.8569 129.525 47.9175 128.805 47.5501 128.663C47.4376 128.573 47.3026 128.535 47.1526 128.535L6.92279 131.49C6.72783 131.505 6.55534 131.617 6.46536 131.79L0.114075 143.848C0.0840759 143.892 0.0615845 143.952 0.0465851 144.005C-0.00590515 144.192 0.0465851 144.402 0.181549 144.537L4.39577 148.917L4.7932 152.096L3.78839 153.956C3.69841 154.121 3.69841 154.331 3.78839 154.496C3.87837 154.661 4.05083 154.773 4.24579 154.781C4.74069 154.811 28.0613 156.168 56.1359 156.168L56.1659 156.183ZM167.4 126.421C167.4 126.421 167.392 126.436 167.385 126.443C165.098 130.567 161.903 134.324 157.907 137.609C150.925 143.36 143.772 145.775 143.704 145.797C112.638 159.19 15.5461 154.286 5.2281 153.716L5.88048 152.508C5.94797 152.403 5.97797 152.269 5.96297 152.141L5.51305 148.594C5.49805 148.474 5.44556 148.362 5.36307 148.272L1.29886 144.05L7.33521 132.584L47.1301 129.66C48.2924 130.102 52.7616 130.492 70.9606 128.993C74.4924 129.255 103.512 131.257 105.454 125.948C105.784 125.048 105.522 124.418 105.244 124.043C103.422 121.599 94.6561 122.019 78.0093 123.046C72.8802 123.361 67.0689 123.721 61.0175 123.983C51.1419 124.411 44.0707 124.733 40.014 124.943C38.2293 125.033 37.247 125.086 36.6996 125.161C36.6771 125.161 36.6471 125.153 36.6171 125.153L28.6986 124.831L29.3585 119.964L45.6604 116.11C46.5977 117.392 50.287 121.929 55.1311 121.576C61.07 121.141 96.7857 119.424 97.1456 119.402C97.5581 119.402 140.705 119.192 158.746 122.821C161.588 123.391 165.398 124.733 167.385 126.406L167.4 126.421Z" fill="#231815"/>
<path d="M5.82903 144.785C2.60463 144.785 0.752502 144.77 0.602539 144.763C0.265106 144.763 -0.00486755 144.485 0.00263977 144.148C0.00263977 143.81 0.265091 143.54 0.617523 143.548C1.88478 143.563 127.486 144.77 167.851 125.753C168.151 125.611 168.518 125.738 168.661 126.046C168.803 126.346 168.676 126.713 168.368 126.856C132.502 143.75 30.1544 144.785 5.82903 144.785Z" fill="#564C23"/>
<path d="M128.974 112.336C144.224 118.445 148.845 119.758 148.845 119.758C148.845 119.758 149.769 121.859 142.897 123.562L141.117 124.058C129.008 128.022 84.9777 134.327 13.3312 132.349L23.3011 109.49C23.3011 109.49 60.913 109.179 69.4366 109.658L93.8095 111.556C93.8095 111.556 110.746 114.907 116.017 114.961C121.289 115.014 124.712 114.198 124.703 112.549C124.695 110.899 128.982 112.327 128.982 112.327L128.974 112.336Z" fill="white"/>
<path d="M13.4049 132.72L23.2967 110.35C28.1347 110.208 74.7948 109.008 94.4749 112.944C95.3993 113.156 117.619 118.133 123.848 114.48C124.315 114.206 125.749 113.368 125.533 112.079C125.17 109.935 120.202 108.841 114.224 107.72C113.015 107.491 111.978 107.296 111.529 107.164L111.157 108.435C111.675 108.594 112.695 108.788 113.991 109.026C116.729 109.538 124.021 110.897 124.254 112.3C124.28 112.441 124.081 112.812 123.2 113.324C117.403 116.721 94.9673 111.691 94.7427 111.647C73.9223 107.482 23.3659 109.017 22.8562 109.035H22.4501L12.2214 132.172L13.4049 132.72Z" fill="#231815"/>
<path d="M26.2261 133.831C35.8723 133.831 51.2754 133.568 75.0997 132.563C124.959 130.474 147.301 124.827 149.682 121.75C150.008 121.33 150.085 120.858 149.905 120.404C149.168 118.507 143.112 117.449 141.27 117.169C140.919 117.126 140.593 117.362 140.542 117.72C140.49 118.078 140.73 118.411 141.081 118.463C144.902 119.049 148.534 120.203 148.714 120.884C146.864 123.271 125.815 129.119 75.0483 131.243C24.4184 133.367 11.9366 132.179 11.8167 132.17C11.4654 132.135 11.1484 132.397 11.1142 132.756C11.0799 133.114 11.3369 133.437 11.6882 133.472C11.7481 133.472 15.3119 133.822 26.2261 133.822V133.831Z" fill="#231815"/>
<path d="M142.904 122.721C143.083 122.721 143.253 122.607 143.313 122.435C143.381 122.222 143.262 121.992 143.04 121.918C136.741 119.985 121.789 116.101 121.644 116.069C121.414 116.011 121.184 116.134 121.124 116.355C121.064 116.577 121.201 116.798 121.422 116.855C121.576 116.896 136.502 120.771 142.784 122.697C142.827 122.713 142.87 122.713 142.912 122.713L142.904 122.721Z" fill="#231815"/>
<path d="M40.9189 129.39H26.6658L31.3016 114.945H45.5547L40.9189 129.39Z" fill="#009CE1"/>
<path d="M49.6756 117.716H50.9401V119.031H52.1338V117.716H53.3882V122.248H49.6756V117.716ZM50.9401 120.063V121.196H52.1338V120.063H50.9401ZM56.0588 117.13H57.3334V122.764H56.0588V117.13ZM54.9359 119.406H56.423V120.498H54.9359V119.406ZM54.0761 117.291H55.3304V122.724H54.0761V117.291ZM50.8996 123.189H57.3334V126.487H55.9981V124.261H50.8996V123.189Z" fill="#231815"/>
<path d="M59.022 118.283H66.7506V119.355H59.022V118.283ZM58.6679 124.464H67.1451V125.546H58.6679V124.464ZM62.2186 123.23H63.5539V124.889H62.2186V123.23ZM62.8762 119.76C64.8286 119.76 66.0526 120.438 66.0526 121.591C66.0526 122.744 64.8286 123.422 62.8762 123.422C60.9238 123.422 59.6998 122.744 59.6998 121.591C59.6998 120.438 60.9238 119.76 62.8762 119.76ZM62.8762 120.802C61.7027 120.802 61.0755 121.055 61.0755 121.591C61.0755 122.127 61.7027 122.37 62.8762 122.37C64.0496 122.37 64.6768 122.127 64.6768 121.591C64.6768 121.055 64.0496 120.802 62.8762 120.802ZM62.2186 117.221H63.5539V118.951H62.2186V117.221Z" fill="#231815"/>
<path d="M71.5245 119.76H72.87V121.55H71.5245V119.76ZM69.0158 119.264H75.4496V120.316H69.0158V119.264ZM69.0158 117.433H75.3686V118.495H70.3511V119.831H69.0158V117.433ZM67.9637 120.913H76.4308V121.965H67.9637V120.913ZM68.9349 122.461H75.4091V124.868H70.2702V125.688H68.945V123.938H74.0839V123.452H68.9349V122.461ZM68.945 125.415H75.6519V126.426H68.945V125.415Z" fill="#231815"/>
<path d="M83.6933 117.109H85.0488V126.507H83.6933V117.109ZM80.001 117.767C81.4172 117.767 82.4591 119.062 82.4591 121.105C82.4591 123.169 81.4172 124.464 80.001 124.464C78.5847 124.464 77.5428 123.169 77.5428 121.105C77.5428 119.062 78.5847 117.767 80.001 117.767ZM80.001 118.991C79.303 118.991 78.8275 119.729 78.8275 121.105C78.8275 122.501 79.303 123.25 80.001 123.25C80.699 123.25 81.1643 122.501 81.1643 121.105C81.1643 119.729 80.699 118.991 80.001 118.991Z" fill="#231815"/>
<path d="M103.332 121.053L94.4431 117.164L96.8832 121.053L94.4431 124.942L103.332 121.062V121.053Z" fill="#C30D23"/>
<path d="M113.332 121.053L103.332 117.164L105.746 121.053L103.332 124.942L113.332 121.062V121.053Z" fill="#C30D23"/>
<path d="M124.445 121.053L113.334 117.164L115.727 121.053L113.334 124.942L124.445 121.062V121.053Z" fill="#C30D23"/>
<path d="M116.993 105.778C113.595 105.778 110.841 101.964 110.841 97.2599C110.841 92.5557 113.595 88.7422 116.993 88.7422C120.39 88.7422 123.145 92.5557 123.145 97.2599C123.145 101.964 120.39 105.778 116.993 105.778Z" fill="white"/>
<path d="M116.991 106.547C120.807 106.547 123.914 102.381 123.914 97.258C123.914 92.135 120.807 87.9688 116.991 87.9688C113.174 87.9688 110.068 92.135 110.068 97.258C110.068 102.381 113.174 106.547 116.991 106.547ZM116.991 89.5118C119.964 89.5118 122.371 92.9889 122.371 97.258C122.371 101.527 119.954 105.004 116.991 105.004C114.028 105.004 111.611 101.527 111.611 97.258C111.611 92.9889 114.028 89.5118 116.991 89.5118Z" fill="#231815"/>
<path opacity="0.6" d="M170.479 156.33C170.196 156.366 169.873 156.413 169.522 156.454C169.347 156.477 169.159 156.507 168.97 156.53C168.775 156.554 168.573 156.566 168.364 156.583C167.522 156.654 166.56 156.736 165.469 156.831C161.105 157.143 154.775 157.361 146.951 157.361C139.126 157.372 129.8 157.172 119.444 156.872C116.851 156.801 114.198 156.731 111.484 156.654C110.131 156.619 108.757 156.595 107.363 156.578C107.013 156.578 106.663 156.578 106.313 156.578C105.956 156.578 105.633 156.566 105.229 156.601L104.65 156.642C104.555 156.648 104.454 156.654 104.36 156.666L104.104 156.713C103.761 156.778 103.424 156.837 103.081 156.89C101.714 157.101 100.326 157.243 98.9797 157.16C98.643 157.137 98.3131 157.096 97.9966 157.031L97.7609 156.978L97.4983 156.907L96.9731 156.76C96.2728 156.566 95.5657 156.366 94.8587 156.171C93.4446 155.777 92.017 155.382 90.576 154.982C89.8555 154.782 89.135 154.582 88.4145 154.382C88.0509 154.281 87.694 154.181 87.3304 154.081C87.1418 154.028 86.9937 153.981 86.7243 153.928L86.5425 153.893L86.3809 153.875L86.0577 153.846C85.2362 153.81 84.4752 153.875 83.7143 153.958C82.9602 154.04 82.2127 154.14 81.472 154.258C79.9906 154.488 78.5361 154.758 77.0951 155.035C74.213 155.594 71.3781 156.195 68.6038 156.766C65.8295 157.331 63.0956 157.896 60.4358 158.285C59.7759 158.373 59.116 158.467 58.4695 158.485C57.8298 158.538 57.1699 158.52 56.5235 158.509C55.2171 158.479 53.9175 158.391 52.6381 158.279C47.5003 157.826 42.6116 157.107 38.0461 156.43C35.7634 156.077 33.5547 155.736 31.4336 155.406C30.3696 155.241 29.3327 155.076 28.3024 154.935L27.9118 154.882C27.7839 154.864 27.6357 154.87 27.5011 154.864C27.225 154.864 26.9422 154.847 26.6998 154.87C26.188 154.9 25.683 154.923 25.1914 154.982C21.2589 155.365 17.7439 155.906 14.6464 156.36C11.5556 156.831 8.89577 157.266 6.72076 157.643C4.55251 158.02 2.86905 158.338 1.72432 158.573C0.586319 158.815 -0.0062561 158.974 0.000488281 159.05C0.00721741 159.121 0.613251 159.103 1.76472 158.997C2.91618 158.891 4.6131 158.709 6.79483 158.456C8.97656 158.202 11.6431 157.89 14.7406 157.525C17.8382 157.178 21.3666 156.742 25.2587 156.46C25.7436 156.419 26.2284 156.407 26.72 156.389C26.9758 156.371 27.1981 156.389 27.427 156.401C27.5415 156.407 27.6559 156.401 27.7772 156.419L28.1475 156.477C29.1508 156.636 30.1946 156.825 31.245 157.013C33.3661 157.378 35.5681 157.761 37.8508 158.155C42.423 158.909 47.3117 159.692 52.5102 160.21C53.8098 160.334 55.1296 160.44 56.4764 160.481C57.1497 160.498 57.8298 160.522 58.5302 160.475C59.2305 160.463 59.9173 160.369 60.5974 160.281C63.3246 159.898 66.0652 159.35 68.853 158.797C71.6407 158.238 74.4689 157.649 77.3375 157.101C78.7718 156.831 80.2195 156.566 81.6673 156.342C82.3945 156.23 83.1218 156.13 83.8423 156.054C84.5628 155.977 85.2968 155.924 85.9634 155.948C86.3136 155.977 86.4886 156.006 86.9061 156.13C87.2698 156.23 87.6334 156.33 87.997 156.43C88.7242 156.631 89.4515 156.831 90.172 157.031C91.6197 157.431 93.054 157.826 94.4748 158.22C95.1886 158.414 95.8957 158.615 96.6027 158.809L97.1347 158.956L97.404 159.027L97.7003 159.091C98.0909 159.168 98.4814 159.215 98.8585 159.244C100.38 159.333 101.835 159.174 103.262 158.944C103.619 158.885 103.976 158.821 104.326 158.75L104.589 158.697C104.676 158.685 104.744 158.685 104.825 158.679L105.289 158.65C105.586 158.62 105.956 158.632 106.293 158.626C106.636 158.626 106.979 158.626 107.323 158.62C108.703 158.638 110.07 158.656 111.424 158.668C114.137 158.721 116.79 158.768 119.376 158.815C129.739 159.009 139.079 159.05 146.924 158.85C154.769 158.662 161.119 158.22 165.489 157.649C166.58 157.484 167.549 157.331 168.391 157.202C168.6 157.166 168.802 157.143 168.997 157.101C169.192 157.054 169.374 157.013 169.549 156.972C169.899 156.89 170.216 156.813 170.505 156.742C171.643 156.46 172.229 156.283 172.223 156.213C172.209 156.142 171.603 156.183 170.458 156.324L170.479 156.33Z" fill="#5DB5CA"/>
<path d="M143.334 108.839L162.223 118.28V99.3906L143.334 108.839Z" fill="#009CE1"/>
<path d="M163.333 124.861C163.333 125.52 162.587 126.055 161.667 126.055C160.746 126.055 160 125.52 160 124.861V100.582C160 99.9226 160.746 99.388 161.667 99.388C162.587 99.388 163.333 99.9226 163.333 100.582V124.861Z" fill="#595757"/>
<path d="M93.8833 66.0253C94.1302 67.198 94.6446 67.7535 95.4058 67.6918C96.1773 67.6095 96.846 66.8791 97.422 65.4903C97.9981 64.081 98.4199 62.6408 98.6873 61.1595L99.1914 58.8757C98.7182 58.4231 98.1216 58.1453 97.4015 58.0219C95.951 57.7853 94.6137 58.4745 93.3896 60.0999L93.4101 62.0339C93.4821 63.4946 93.6364 64.8217 93.8833 66.015V66.0253Z" fill="#EA7065"/>
<path d="M95.2929 68.4683C95.3546 68.4683 95.4163 68.4683 95.4677 68.4683C96.5684 68.3551 97.4429 67.4807 98.1321 65.7936C98.7287 64.3431 99.1711 62.8309 99.4488 61.3084L100.035 58.6235L99.7163 58.3252C99.1299 57.7697 98.3892 57.4199 97.5251 57.2759C95.7764 56.9878 94.1716 57.7902 92.7726 59.6522L92.6183 59.858L92.6388 62.0594C92.7108 63.5819 92.8754 64.9604 93.1326 66.1845C93.5441 68.1288 94.6036 68.4786 95.3032 68.4786L95.2929 68.4683ZM98.3378 59.179L97.9366 60.9895C97.6692 62.44 97.2577 63.8391 96.7125 65.1867C96.2701 66.2565 95.7764 66.8738 95.334 66.9149C95.2312 66.9149 94.8711 66.9561 94.6448 65.8553C94.4082 64.7032 94.2539 63.407 94.1922 61.9977L94.1716 60.362C95.1694 59.1173 96.1878 58.6029 97.2885 58.7778C97.7 58.8498 98.0498 58.9733 98.3481 59.1687L98.3378 59.179Z" fill="#231815"/>
<path d="M95.8176 60.0415C95.8176 60.0415 93.6573 63.2819 90.4169 63.2819C87.1868 63.2819 83.823 61.3377 85.0163 56.5439C86.2096 51.7501 93.287 52.0587 95.8073 52.0587C98.3276 52.0587 104.253 51.7501 105.456 56.5439C106.65 61.3377 103.296 63.2819 100.056 63.2819C96.8154 63.2819 95.8073 60.0415 95.8073 60.0415H95.8176Z" fill="white"/>
<path d="M90.422 64.0503C92.8189 64.0503 94.6603 62.5278 95.6478 61.4682C96.409 62.7027 97.8492 64.0503 100.071 64.0503C102.293 64.0503 104.268 63.217 105.4 61.7768C106.151 60.8201 106.902 59.0919 106.213 56.3555C104.937 51.2325 99.0734 51.2634 96.2445 51.284H95.8227H95.4009C92.4691 51.2634 85.5666 51.2325 84.2807 56.3555C83.5915 59.0919 84.3424 60.8098 85.0934 61.7768C86.225 63.217 88.1589 64.0503 90.422 64.0503ZM95.8227 59.2668C95.5655 59.2668 95.3289 59.3902 95.1849 59.6063C95.1643 59.6371 93.1995 62.5072 90.4323 62.5072C88.6732 62.5072 87.1405 61.8797 86.3175 60.8304C85.5357 59.8223 85.3506 58.4438 85.7826 56.7361C86.7702 52.7859 92.8189 52.8168 95.3906 52.8373H95.8227H96.2547C98.8573 52.827 103.733 52.7962 104.721 56.7361C105.153 58.4541 104.968 59.8326 104.186 60.8304C103.363 61.8797 101.83 62.5072 100.071 62.5072C97.4583 62.5072 96.5942 59.9149 96.5531 59.8017C96.4605 59.524 96.2136 59.3182 95.9256 59.2771C95.8844 59.2771 95.8536 59.2771 95.8124 59.2771L95.8227 59.2668Z" fill="#231815"/>
<path d="M99.4922 52.4168C99.4922 53.0648 98.4738 54.3199 96.8999 54.3199C95.326 54.3199 93.4332 53.0546 93.4332 52.4168C93.4332 51.779 94.4001 50.9766 96.8999 50.9766C99.3996 50.9766 99.4922 51.779 99.4922 52.4168Z" fill="#231815"/>
<path d="M142.707 118.278C142.966 118.278 143.207 118.1 143.299 117.825C143.408 117.479 143.241 117.097 142.907 116.982L125.268 110.538C124.943 110.414 124.584 110.601 124.476 110.956C124.368 111.302 124.534 111.683 124.868 111.799L142.507 118.242C142.574 118.269 142.64 118.278 142.707 118.278Z" fill="#231815"/>
</svg>
