<svg width="17" height="16" viewBox="0 0 17 16" fill="none" xmlns="http://www.w3.org/2000/svg">
<g id="icon16">
<path id="Vector" d="M6.35483 3.66667H5.15483C4.40809 3.66667 4.03444 3.66667 3.74923 3.81199C3.49834 3.93982 3.29452 4.14365 3.16669 4.39453C3.02136 4.67975 3.02136 5.05339 3.02136 5.80013V10.8668C3.02136 11.6135 3.02136 11.9867 3.16669 12.2719C3.29452 12.5228 3.49834 12.727 3.74923 12.8548C4.03416 13 4.40736 13 5.15263 13H10.2234C10.9687 13 11.3414 13 11.6263 12.8548C11.8772 12.727 12.0817 12.5226 12.2095 12.2717C12.3547 11.9868 12.3547 11.614 12.3547 10.8687V9.66667M13.0214 6.33333V3M13.0214 3H9.68803M13.0214 3L7.52136 8.5" stroke="#2F9BD8" stroke-linecap="round" stroke-linejoin="round"/>
</g>
</svg>
