<svg width="24" height="24" viewBox="0 0 24 24" fill="none" xmlns="http://www.w3.org/2000/svg">
<g id="Group 1020102028">
<g id="Group 1020102027">
<g id="Group 1020102025">
<g id="Vector">
<path id="Vector-10" fill-rule="evenodd" clip-rule="evenodd" d="M5.36971 11.9526C5.2305 8.14751 8.19635 4.94711 12.0011 4.79688C15.8058 4.94711 18.7716 8.14751 18.6324 11.9526C18.6324 13.5331 20.3497 15.0727 20.4001 16.6568C20.4001 16.6792 20.4001 16.7016 20.4001 16.724C20.4372 17.7388 19.646 18.5923 18.6312 18.632H14.8007C14.8043 19.4097 14.5112 20.1594 13.9811 20.7285C13.4715 21.2819 12.7534 21.5968 12.0011 21.5968C11.2487 21.5968 10.5307 21.2819 10.021 20.7285C9.49097 20.1594 9.19785 19.4097 9.2014 18.632H5.36971C4.35493 18.5923 3.5637 17.7388 3.60087 16.724C3.60087 16.7016 3.60087 16.6792 3.60087 16.6568C3.65247 15.0775 5.36971 13.5343 5.36971 11.9526Z" stroke="#1F4F82" stroke-width="1.5" stroke-linecap="round" stroke-linejoin="round"/>
<path id="Vector-11" d="M9.20117 17.8773C8.78696 17.8773 8.45117 18.2131 8.45117 18.6273C8.45117 19.0415 8.78696 19.3773 9.20117 19.3773V17.8773ZM14.8005 19.3773C15.2147 19.3773 15.5505 19.0415 15.5505 18.6273C15.5505 18.2131 15.2147 17.8773 14.8005 17.8773V19.3773ZM13.2008 3.14294C13.6151 3.14294 13.9508 2.80716 13.9508 2.39294C13.9508 1.97873 13.6151 1.64294 13.2008 1.64294V3.14294ZM10.8008 1.64294C10.3866 1.64294 10.0508 1.97873 10.0508 2.39294C10.0508 2.80716 10.3866 3.14294 10.8008 3.14294V1.64294ZM9.20117 19.3773H14.8005V17.8773H9.20117V19.3773ZM13.2008 1.64294H10.8008V3.14294H13.2008V1.64294Z" fill="#1F4F82"/>
</g>
</g>
</g>
</g>
</svg>
