<svg width="48" height="48" viewBox="0 0 48 48" fill="none" xmlns="http://www.w3.org/2000/svg">
<rect width="48" height="48" rx="4" fill="#1F4F82"/>
<g clip-path="url(#clip0_1021_6147)">
<path d="M30.6251 28.8611H30.6254C31.3101 28.863 31.9883 28.7291 32.6208 28.4671C33.2534 28.2051 33.8277 27.8203 34.3105 27.3348L34.3107 27.3346L36.6646 24.9807H32.9834C32.9471 24.9807 32.9137 24.9611 32.8961 24.9295L30.0403 19.8179C29.9636 19.6809 29.8518 19.5668 29.7163 19.4873C29.5809 19.4079 29.4268 19.366 29.2698 19.3659C29.2698 19.3659 29.2697 19.3659 29.2697 19.3659H19.2519C19.0877 19.3659 18.9301 19.3007 18.8139 19.1845C18.6978 19.0683 18.6325 18.9108 18.6325 18.7465C18.6325 18.5822 18.6978 18.4246 18.8139 18.3085C18.9301 18.1923 19.0877 18.1271 19.2519 18.1271H29.2697H29.2698C29.6472 18.1273 30.0177 18.2281 30.3432 18.419C30.6687 18.61 30.9374 18.8842 31.1218 19.2135L31.1218 19.2136L33.6518 23.7419L38.0665 23.7419C38.0927 23.7419 38.1178 23.7521 38.1365 23.7704L38.8067 24.4268C38.8453 24.4647 38.8468 24.5264 38.8102 24.5661L38.5596 24.8375L38.5569 24.8404L38.5568 24.8404L35.1868 28.2104L30.6251 28.8611ZM30.6251 28.8611H10.3349C10.1706 28.8611 10.013 28.9264 9.89686 29.0425C9.78069 29.1587 9.71543 29.3163 9.71543 29.4805C9.71543 29.6448 9.78069 29.8024 9.89686 29.9186C10.013 30.0347 10.1706 30.1 10.3349 30.1L30.6249 30.1M30.6251 28.8611L30.6249 30.1M30.6249 30.1C30.625 30.1 30.625 30.1 30.6251 30.1C31.4726 30.1023 32.3121 29.9365 33.0951 29.6121C33.8781 29.2878 34.589 28.8114 35.1866 28.2106L30.6249 30.1Z" fill="white" stroke="white" stroke-width="0.2" stroke-linejoin="round"/>
<path d="M12.975 29.1103L12.975 29.1103L20.984 18.3763C20.984 18.3763 20.9841 18.3762 20.9841 18.3762C21.0327 18.311 21.0937 18.256 21.1635 18.2144M12.975 29.1103L21.2147 18.3002L21.1635 18.2144M12.975 29.1103C12.9063 29.2024 12.8646 29.3117 12.8545 29.4261C12.8445 29.5405 12.8664 29.6554 12.9178 29.7581C12.9693 29.8608 13.0482 29.9471 13.1459 30.0075C13.2436 30.0678 13.3561 30.0999 13.471 30.1M12.975 29.1103L13.471 30.1M21.1635 18.2144L21.1635 18.2144M21.1635 18.2144L21.1635 18.2144M21.9773 19.1167L21.9773 19.1167L13.9683 29.8507L21.9773 19.1167ZM21.9773 19.1167C22.0259 19.0515 22.0612 18.9773 22.0812 18.8985C22.1011 18.8196 22.1054 18.7376 22.0936 18.6571C22.0819 18.5766 22.0544 18.4992 22.0127 18.4293C21.9711 18.3595 21.9161 18.2985 21.8509 18.2499C21.7857 18.2012 21.7115 18.1659 21.6326 18.146C21.5538 18.126 21.4718 18.1218 21.3913 18.1335C21.3108 18.1453 21.2334 18.1728 21.1635 18.2144M21.9773 19.1167L21.1635 18.2144M13.471 30.1C13.5676 30.1001 13.6628 30.0777 13.7492 30.0344C13.8355 29.9911 13.9105 29.9282 13.9682 29.8508L13.4709 30.1C13.4709 30.1 13.471 30.1 13.471 30.1Z" fill="white" stroke="white" stroke-width="0.2"/>
<path d="M17.2919 24.9805H33.2883C33.4526 24.9805 33.6101 24.9152 33.7263 24.799C33.8425 24.6829 33.9077 24.5253 33.9077 24.361C33.9077 24.1968 33.8425 24.0392 33.7263 23.923C33.6101 23.8069 33.4526 23.7416 33.2883 23.7416H17.2919C17.1276 23.7416 16.9701 23.8069 16.8539 23.923C16.7377 24.0392 16.6725 24.1968 16.6725 24.361C16.6725 24.5253 16.7377 24.6829 16.8539 24.799C16.9701 24.9152 17.1276 24.9805 17.2919 24.9805Z" fill="white" stroke="white" stroke-width="0.2"/>
<path d="M28.9733 24.1005L28.9733 24.1005C29.0424 24.2496 29.0495 24.42 28.993 24.5742C28.9365 24.7285 28.8211 24.854 28.6721 24.9231C28.5906 24.9612 28.5017 24.9808 28.4118 24.9807M28.9733 24.1005L27.9882 22.0882M28.9733 24.1005L28.1304 22.2844C28.1303 22.2843 28.1303 22.2843 28.1303 22.2842M28.9733 24.1005L28.1303 22.2842M28.4118 24.9807C28.2936 24.9808 28.1778 24.9471 28.0782 24.8836C27.9785 24.82 27.8991 24.7292 27.8493 24.622C27.8493 24.622 27.8493 24.622 27.8493 24.622L27.0065 22.8058C27.0064 22.8058 27.0064 22.8057 27.0064 22.8056C26.9718 22.7318 26.9521 22.6519 26.9485 22.5705C26.9448 22.4891 26.9573 22.4076 26.9852 22.331C27.0131 22.2543 27.0558 22.184 27.111 22.1239C27.1662 22.0638 27.2326 22.0152 27.3066 21.9808C27.3806 21.9465 27.4607 21.9271 27.5422 21.9238C27.6237 21.9205 27.705 21.9333 27.7816 21.9615C27.8581 21.9897 27.9283 22.0328 27.9882 22.0882M28.4118 24.9807C28.4117 24.9807 28.4117 24.9807 28.4116 24.9807L28.4118 24.8807L28.4119 24.9807C28.4119 24.9807 28.4118 24.9807 28.4118 24.9807ZM27.9882 22.0882C28.048 22.1435 28.0963 22.2102 28.1303 22.2842M27.9882 22.0882L28.1303 22.2842" fill="white" stroke="white" stroke-width="0.2"/>
<path d="M12.6972 21.7418H16.1394C16.3037 21.7418 16.4612 21.6765 16.5774 21.5604C16.6936 21.4442 16.7588 21.2867 16.7588 21.1224C16.7588 20.9581 16.6936 20.8005 16.5774 20.6844C16.4612 20.5682 16.3037 20.5029 16.1394 20.5029H12.6972C12.5329 20.5029 12.3753 20.5682 12.2592 20.6844C12.143 20.8005 12.0777 20.9581 12.0777 21.1224C12.0777 21.2867 12.143 21.4442 12.2592 21.5604C12.3753 21.6765 12.5329 21.7418 12.6972 21.7418Z" fill="white" stroke="white" stroke-width="0.2"/>
<path d="M9.76943 25.2517H13.2112C13.3755 25.2517 13.533 25.1864 13.6492 25.0702C13.7654 24.9541 13.8306 24.7965 13.8306 24.6322C13.8306 24.4679 13.7654 24.3104 13.6492 24.1942C13.533 24.0781 13.3755 24.0128 13.2112 24.0128H9.76943C9.60515 24.0128 9.44759 24.0781 9.33143 24.1942C9.21526 24.3104 9.15 24.4679 9.15 24.6322C9.15 24.7965 9.21526 24.9541 9.33143 25.0702C9.44759 25.1864 9.60515 25.2517 9.76943 25.2517Z" fill="white" stroke="white" stroke-width="0.2"/>
</g>
<defs>
<clipPath id="clip0_1021_6147">
<rect width="30" height="13" fill="white" transform="translate(9 18)"/>
</clipPath>
</defs>
</svg>
