<svg width="106" height="20" viewBox="0 0 106 20" fill="none" xmlns="http://www.w3.org/2000/svg">
<g id="KBOAT_Ci" clip-path="url(#clip0_8417_87986)">
<path id="Vector" d="M27.7801 0H23.4737C21.7192 0 20.2837 0.59726 19.4807 1.27671L9.07487 8.75068C9.90536 5.66027 10.7248 2.61918 11.4288 0H8.42038C6.55591 0 5.19193 0.564384 4.86743 1.61096L0 19.7151H2.99746C4.89493 19.7151 6.28091 19.1342 6.57241 18.0548V18.0658C7.1719 15.8247 7.83189 13.3699 8.50288 10.8877L14.5198 18.3836C15.1083 19.1123 15.7518 19.7151 17.8802 19.7151H22.4782L14.6298 10.0164L27.7801 0Z" fill="#6F6F71"/>
<path id="Vector_2" d="M102.931 5.50805C104.317 5.50805 105.268 4.72449 105.461 4.01216L105.994 2.1875H89.2471C87.3496 2.1875 85.9691 2.76832 85.6721 3.84777L85.1826 5.50257H93.2015H93.1905L89.4396 19.6176H90.787C92.6625 19.6176 94.0265 19.0533 94.3455 17.9957C94.8185 16.2423 96.9635 8.08887 97.6619 5.49709H102.925L102.931 5.50805Z" fill="#6F6F71"/>
<path id="Vector_3" d="M60.3506 1.9375H59.4596C54.4052 1.9375 49.4057 5.20873 48.1023 9.97586L47.5578 11.9594C46.2488 16.7211 49.4497 19.9978 54.5097 19.9978H55.4007C60.4606 19.9978 65.4545 16.7211 66.7635 11.9594L67.308 9.97586C68.617 5.20873 65.416 1.9375 60.3561 1.9375H60.3506ZM62.5671 10.6772L62.3746 11.3786C61.4341 14.8142 58.6236 16.6717 56.3136 16.6717H55.4447C53.1402 16.6717 51.3417 14.8142 52.2877 11.3786L52.4802 10.6772C53.4207 7.24709 56.2312 5.38955 58.5411 5.38955H59.4101C61.7146 5.38955 63.5075 7.24709 62.5671 10.6772Z" fill="#6F6F71"/>
<path id="Vector_4" d="M46.0231 7.45315C46.6006 4.7189 44.7746 2.24219 41.5682 2.24219H33.1808C31.3273 2.24219 29.9689 2.80109 29.6334 3.84219L25.3159 19.7655H37.7347C41.0402 19.7655 43.6527 18.5107 44.5106 15.2668C44.9561 13.5682 44.2026 11.8038 43.2677 11.1682C44.7801 10.5271 45.6436 9.19561 46.0121 7.44767L46.0231 7.45315ZM40.5727 14.7134C40.3087 15.6833 39.2802 16.4723 38.1252 16.4723H30.4638L31.4923 12.6312H39.0987C40.2317 12.6312 40.8697 13.623 40.5672 14.7134H40.5727ZM42.1127 7.65589C41.8487 8.63123 40.6387 9.34356 39.6707 9.34356H32.3833L33.4008 5.53534H40.5892C41.9972 5.53534 42.3822 6.68602 42.1182 7.65589H42.1127Z" fill="#6F6F71"/>
<path id="Vector_5" d="M81.234 16.0857L81.993 18.3926C82.2735 19.2474 82.9609 19.746 84.2259 19.746H86.7064L80.7555 2.19531H78.5335C77.263 2.19531 76.3335 2.63367 75.69 3.61997L65.4712 19.746H67.7262C68.6776 19.746 69.9041 19.4665 70.5421 18.4419L78.022 6.63915L80.0185 12.5515H78.649C76.8615 12.5515 76.1025 13.1323 75.4371 14.2282L74.2766 16.0638H81.2285" fill="#6F6F71"/>
</g>
<defs>
<clipPath id="clip0_8417_87986">
<rect width="106" height="20" fill="white"/>
</clipPath>
</defs>
</svg>
