<svg width="85" height="16" viewBox="0 0 85 16" fill="none" xmlns="http://www.w3.org/2000/svg">
<g id="Vector">
<path d="M22.6114 0.00437364H19.1798C17.7817 0.00437364 16.6378 0.4821 15.998 1.02556L7.70597 7.00361C8.36775 4.53174 9.02077 2.09932 9.58175 0.00437364H7.18444C5.69872 0.00437364 4.61182 0.455797 4.35324 1.2929L0.470215 15.7735H2.85876C4.37078 15.7735 5.4752 15.3089 5.70748 14.4455V14.4543C6.18519 12.6617 6.71111 10.6983 7.24579 8.71287L12.0404 14.7085C12.5094 15.2914 13.0221 15.7735 14.7182 15.7735H18.3821L12.1281 8.01602L22.607 0L22.6114 0.00437364Z" fill="white" fill-opacity="0.6"/>
<path d="M82.5003 4.40903C83.6047 4.40903 84.3629 3.7823 84.5163 3.21254L84.9414 1.75309H71.5962C70.0842 1.75309 68.9842 2.21766 68.7475 3.08106L68.3575 4.40465H74.7474H74.7386L71.7496 15.6946H72.8234C74.3179 15.6946 75.4048 15.2431 75.659 14.3973C76.0359 12.9904 77.7451 6.47329 78.3017 4.40026H82.4959L82.5003 4.40903Z" fill="white" fill-opacity="0.6"/>
<path d="M47.8598 1.5545C43.8321 1.5545 39.8483 4.17099 38.8096 7.98397L38.3757 9.57053C37.3327 13.3791 39.8834 16 43.9154 16H44.6254C48.6574 16 52.6369 13.3791 53.6799 9.57053L54.1138 7.98397C55.1569 4.17099 52.6062 1.5545 48.5742 1.5545H47.8598ZM50.336 8.54497L50.1826 9.10596C49.4332 11.8539 47.1936 13.3397 45.3529 13.3397H44.6605C42.8241 13.3397 41.391 11.8539 42.1448 9.10596L42.2982 8.54497C43.0476 5.80138 45.2872 4.31562 47.1279 4.31562H47.8203C49.6567 4.31562 51.0854 5.80138 50.336 8.54497Z" fill="white" fill-opacity="0.6"/>
<path d="M37.1486 5.96559C37.6088 3.77861 36.1538 1.79761 33.5987 1.79761H26.9152C25.4382 1.79761 24.3557 2.24465 24.0883 3.07737L20.648 15.8136H30.544C33.178 15.8136 35.2597 14.81 35.9434 12.2154C36.2984 10.8567 35.698 9.44549 34.9529 8.93709C36.1582 8.42431 36.8462 7.3593 37.1399 5.96121L37.1486 5.96559ZM32.8098 11.7727C32.5995 12.5485 31.7799 13.1796 30.8595 13.1796H24.7545L25.5741 10.1073H31.6353C32.5381 10.1073 33.0465 10.9006 32.8054 11.7727H32.8098ZM34.0326 6.12337C33.8222 6.90349 32.858 7.47326 32.0867 7.47326H26.2797L27.0905 4.42725H32.8186C33.9405 4.42725 34.2473 5.34762 34.037 6.12337H34.0326Z" fill="white" fill-opacity="0.6"/>
<path d="M65.2108 12.8668L65.8156 14.7119C66.0391 15.3956 66.5869 15.7944 67.5949 15.7944H69.5715L64.8295 1.75652H63.0589C62.0465 1.75652 61.3058 2.10714 60.7931 2.89603L52.6501 15.7944H54.447C55.2052 15.7944 56.1825 15.5709 56.6909 14.7513L62.6513 5.31093L64.2422 10.0399H63.1509C61.7266 10.0399 61.1218 10.5045 60.5915 11.381L59.6667 12.8492H65.2064" fill="white" fill-opacity="0.6"/>
</g>
</svg>
