<svg width="20" height="21" viewBox="0 0 20 21" fill="none" xmlns="http://www.w3.org/2000/svg">
<g id="Group 1020102435">
<path id="Vector" d="M13.3333 5.5V8C13.3333 9.84095 11.8409 11.3333 10 11.3333C8.15905 11.3333 6.66666 9.84095 6.66666 8V5.5" stroke="#2C2C2C" stroke-linecap="round" stroke-linejoin="round"/>
<path id="Ellipse 1875" d="M17.0833 18.833C17.0833 14.6909 13.912 11.333 10 11.333C6.08798 11.333 2.91666 14.6909 2.91666 18.833" stroke="#2C2C2C" stroke-linecap="round"/>
<path id="Rectangle 151151987" d="M12.6214 12.0125L10.5844 14.0494C10.263 14.3708 9.74188 14.3708 9.42046 14.0494L7.38353 12.0125" stroke="#2C2C2C" stroke-linejoin="round"/>
<path id="Union" d="M10.3076 1.38273C10.1076 1.31643 9.89238 1.31643 9.69241 1.38273L5.69241 2.70879C5.27966 2.84562 5 3.23975 5 3.68461V5.30747C5 5.87386 5.44772 6.33301 6 6.33301H14C14.5523 6.33301 15 5.87386 15 5.30747V3.68461C15 3.23975 14.7203 2.84562 14.3076 2.70879L10.3076 1.38273Z" fill="#2F9BD8"/>
</g>
</svg>
