<svg width="80" height="73" viewBox="0 0 80 73" fill="none" xmlns="http://www.w3.org/2000/svg">
<g id="Group 1020101854">
<g id="Group 1020101844">
<path id="Vector" d="M8.5405 3.42554C11.0023 1.90465 13.2707 1.49221 15.3587 1.31176C19.4961 0.925098 23.2983 2.76821 26.2885 5.47487C28.5441 7.52421 31.0703 10.2824 32.1143 13.1309C34.1765 6.82821 41.3041 0.43532 48.2512 0.937986C50.3392 1.09265 52.6334 1.45354 55.1209 2.90999C65.5094 8.99354 66.7081 27.6695 48.7281 43.2651C45.9183 45.7011 42.6316 48.0726 38.8423 50.3024C36.6769 51.5784 32.5009 53.8469 32.3978 53.7953C32.3978 53.7953 32.2303 53.7438 31.9854 53.6278C30.8512 53.0993 27.6676 51.4495 25.8761 50.4313C22.0352 48.2918 18.7098 45.9975 15.8356 43.6131C-2.4795 28.4429 -1.70616 9.7411 8.5405 3.42554Z" fill="url(#paint0_linear_1209_5139)"/>
<path id="Vector_2" d="M3.01172 36.2144C5.17705 34.1522 8.61839 34.2166 10.7064 36.3562L25.0646 49.1677C26.173 50.1215 28.2095 50.4695 29.5757 49.9669C33.3006 48.5749 36.9611 47.0024 40.6344 45.5331C41.1757 45.314 41.7299 45.0949 42.2971 44.8886L29.5886 42.3753C26.6499 41.7953 24.4975 39.1531 24.7682 36.2015C25.0775 32.7086 28.3642 30.35 31.7411 31.0202L59.3619 36.4851C60.3415 36.6784 66.1028 38.8437 67.6753 40.6095C70.4464 43.7286 71.6193 47.8917 71.6193 51.9904C71.6193 61.9922 67.5722 64.4282 61.7077 65.4464C61.6691 65.4464 61.6433 65.4464 61.6046 65.4593L28.6091 71.2077C27.1526 71.2851 25.1677 70.4344 24.2268 69.326L2.85705 43.8189C0.769051 41.6793 0.833495 38.2766 3.01172 36.2144Z" fill="white" stroke="#666666" stroke-width="2.5" stroke-linecap="round" stroke-linejoin="round"/>
<path id="Vector_3" d="M75.0603 70.8212H63.6021C61.6043 70.8212 59.9932 69.223 59.9932 67.251V34.539C59.9932 32.567 61.6043 30.9688 63.6021 30.9688H75.0603C77.0581 30.9688 78.6692 32.567 78.6692 34.539V67.251C78.6692 69.223 77.0581 70.8212 75.0603 70.8212Z" fill="url(#paint1_linear_1209_5139)" stroke="#666666" stroke-width="2.5" stroke-miterlimit="10"/>
<path id="Vector_4" d="M66.7222 62.4645C66.7222 63.8823 67.8822 65.0294 69.3257 65.0294C70.7693 65.0294 71.9293 63.8823 71.9293 62.4645C71.9293 61.0467 70.7564 59.8867 69.3257 59.8867C67.8951 59.8867 66.7222 61.0338 66.7222 62.4645Z" fill="#666666"/>
</g>
</g>
<defs>
<linearGradient id="paint0_linear_1209_5139" x1="31.9944" y1="0.910156" x2="31.9944" y2="53.7962" gradientUnits="userSpaceOnUse">
<stop stop-color="#2F95E3"/>
<stop offset="1" stop-color="#61C7F2"/>
</linearGradient>
<linearGradient id="paint1_linear_1209_5139" x1="69.3312" y1="30.9687" x2="69.3312" y2="70.8212" gradientUnits="userSpaceOnUse">
<stop stop-color="#2F95E3"/>
<stop offset="1" stop-color="#61C7F2"/>
</linearGradient>
</defs>
</svg>
