<svg width="50" height="41" viewBox="0 0 50 41" fill="none" xmlns="http://www.w3.org/2000/svg">
<g id="Group 1020101912">
<path id="Vector" d="M2.62713 27.0264C2.01267 25.6367 1.6665 24.0878 1.6665 22.4591C1.6665 16.3075 6.53885 11.3242 12.5536 11.3242H24.7907C30.8054 11.3242 35.6778 16.3075 35.6778 22.4591C35.6778 28.6108 30.8054 33.594 24.7907 33.594H12.5536L11.6189 39.7988C11.6189 39.7988 3.22427 28.3983 2.61847 27.0264H2.62713Z" fill="white" stroke="#666666" stroke-width="2" stroke-linecap="round" stroke-linejoin="round"/>
<g id="Group 1020101915">
<path id="Vector_2" d="M47.2648 18.8357C47.9521 17.3295 48.3332 15.6544 48.3332 13.8915C48.3332 7.2249 42.8891 1.82812 36.1792 1.82812H22.5212C15.8113 1.82812 10.3672 7.23166 10.3672 13.8915C10.3672 20.5514 15.8113 25.9549 22.5212 25.9549H36.1792L37.2204 32.6755C37.2204 32.6755 46.5911 20.3285 47.2648 18.8425V18.8357Z" fill="url(#paint0_linear_1209_10490)" stroke="#666666" stroke-width="2" stroke-linecap="round" stroke-linejoin="round"/>
<path id="Vector_3" d="M22.6736 14.4369C22.6736 15.2911 21.9855 15.9793 21.1312 15.9793C20.277 15.9793 19.5889 15.2911 19.5889 14.4369C19.5889 13.5827 20.277 12.8945 21.1312 12.8945C21.9855 12.8945 22.6736 13.5827 22.6736 14.4369Z" fill="#666666"/>
<path id="Vector_4" d="M30.9803 14.4369C30.9803 15.2911 30.2921 15.9793 29.4379 15.9793C28.5836 15.9793 27.8955 15.2911 27.8955 14.4369C27.8955 13.5827 28.5836 12.8945 29.4379 12.8945C30.2921 12.8945 30.9803 13.5827 30.9803 14.4369Z" fill="#666666"/>
<path id="Vector_5" d="M39.2844 14.4369C39.2844 15.2911 38.5963 15.9793 37.7421 15.9793C36.8878 15.9793 36.1997 15.2911 36.1997 14.4369C36.1997 13.5827 36.8878 12.8945 37.7421 12.8945C38.5963 12.8945 39.2844 13.5827 39.2844 14.4369Z" fill="#666666"/>
</g>
</g>
<defs>
<linearGradient id="paint0_linear_1209_10490" x1="14.9879" y1="1.82813" x2="45.0973" y2="25.6876" gradientUnits="userSpaceOnUse">
<stop stop-color="#2F95E3"/>
<stop offset="1" stop-color="#5ACCEA"/>
</linearGradient>
</defs>
</svg>
