<svg width="42" height="50" viewBox="0 0 42 50" fill="none" xmlns="http://www.w3.org/2000/svg">
<g id="Group 1020101917">
<path id="Vector" d="M32.8209 16.8272C32.8209 23.283 27.5862 28.5098 21.1382 28.5098C14.6902 28.5098 9.45557 23.2752 9.45557 16.8272C9.45557 10.3792 14.6824 5.14453 21.1382 5.14453C27.594 5.14453 32.8209 10.3792 32.8209 16.8272Z" fill="white" stroke="#666666" stroke-width="2" stroke-linecap="round" stroke-linejoin="round"/>
<path id="Vector_2" d="M37.9392 45.1334C37.9392 35.9553 30.4956 28.5117 21.3175 28.5117C12.1394 28.5117 4.6958 35.9553 4.6958 45.1334V48.338H37.9392V45.1334Z" fill="white" stroke="#666666" stroke-width="2" stroke-linecap="round" stroke-linejoin="round"/>
<path id="Vector_3" d="M35.6596 21.6211V26.7391C35.6596 27.4702 35.0762 28.0535 34.3606 28.0535H23.728" stroke="#666666" stroke-width="2" stroke-linecap="round" stroke-linejoin="round"/>
<path id="Vector_4" d="M26.4042 29.3025C26.4042 29.6602 26.1008 29.948 25.7275 29.948H20.2128C19.8395 29.948 19.5361 29.6602 19.5361 29.3025V26.7979C19.5361 26.4401 19.8395 26.1523 20.2128 26.1523H25.7275C26.1008 26.1523 26.4042 26.4401 26.4042 26.7979V29.3025Z" fill="white" stroke="#666666" stroke-width="2" stroke-linecap="round" stroke-linejoin="round"/>
<path id="Vector_5" d="M6.25977 15.7385C6.25977 7.9682 12.9178 1.66797 21.1314 1.66797C29.345 1.66797 36.0108 7.9682 36.0108 15.7385" stroke="#666666" stroke-width="2" stroke-linecap="round" stroke-linejoin="round"/>
<path id="Vector_6" d="M18.5876 15.503C18.5876 16.1019 18.1054 16.5842 17.5064 16.5842C16.9075 16.5842 16.4253 16.1019 16.4253 15.503C16.4253 14.9041 16.9075 14.4219 17.5064 14.4219C18.1054 14.4219 18.5876 14.9041 18.5876 15.503Z" fill="#666666"/>
<path id="Vector_7" d="M25.8679 15.503C25.8679 16.1019 25.3856 16.5842 24.7867 16.5842C24.1878 16.5842 23.7056 16.1019 23.7056 15.503C23.7056 14.9041 24.1878 14.4219 24.7867 14.4219C25.3856 14.4219 25.8679 14.9041 25.8679 15.503Z" fill="#666666"/>
<path id="Vector_8" d="M24.4672 19.0703C24.4672 20.587 23.0205 21.8082 21.2315 21.8082H21.0604C19.2714 21.8082 17.8247 20.5793 17.8247 19.0703" stroke="#666666" stroke-width="2" stroke-linecap="round" stroke-linejoin="round"/>
<g id="Group 1020101916">
<path id="Vector_9" d="M8.71757 11.0156H7.44974C7.44974 11.0156 7.43419 11.0156 7.42641 11.0156C6.8975 11.0156 6.39193 11.0778 5.90969 11.2023C3.56071 11.7934 1.83398 13.8468 1.83398 17.5103C1.83398 21.936 4.33852 24.0128 7.41863 24.0128C7.41863 24.0128 7.43419 24.0128 7.44197 24.0128H8.70979C9.11425 24.0128 9.44093 23.7016 9.44093 23.3205V11.7157C9.44093 11.3345 9.11425 11.0156 8.70979 11.0156H8.71757Z" fill="url(#paint0_linear_1209_2657)" stroke="#666666" stroke-width="2" stroke-linecap="round" stroke-linejoin="round"/>
<path id="Vector_10" d="M36.353 11.2023C35.8708 11.0778 35.3652 11.0156 34.8441 11.0156C34.8441 11.0156 34.8285 11.0156 34.8207 11.0156H33.5529C33.1485 11.0156 32.8218 11.3267 32.8218 11.7157V23.3205C32.8218 23.7016 33.1485 24.0128 33.5529 24.0128H34.8207C34.8207 24.0128 34.8363 24.0128 34.8441 24.0128C37.932 24.0128 40.4287 21.936 40.4287 17.5181C40.4287 13.8468 38.702 11.8012 36.353 11.2101V11.2023Z" fill="url(#paint1_linear_1209_2657)" stroke="#666666" stroke-width="2" stroke-linecap="round" stroke-linejoin="round"/>
</g>
</g>
<defs>
<linearGradient id="paint0_linear_1209_2657" x1="2.67716" y1="12.1641" x2="9.76121" y2="12.5538" gradientUnits="userSpaceOnUse">
<stop stop-color="#2F95E3"/>
<stop offset="1" stop-color="#58CEE7"/>
</linearGradient>
<linearGradient id="paint1_linear_1209_2657" x1="33.665" y1="12.1641" x2="40.749" y2="12.5538" gradientUnits="userSpaceOnUse">
<stop stop-color="#2F95E3"/>
<stop offset="1" stop-color="#58CEE7"/>
</linearGradient>
</defs>
</svg>
