<svg width="38" height="26" viewBox="0 0 38 26" fill="none" xmlns="http://www.w3.org/2000/svg">
<rect y="8" width="38" height="10" fill="#8935E0"/>
<rect x="7.5" y="1.5" width="23" height="23" rx="11.5" fill="white"/>
<rect x="7.5" y="1.5" width="23" height="23" rx="11.5" stroke="#8935E0" stroke-width="3"/>
<path d="M18.9639 19.166C18.2002 19.166 17.5112 19.0138 16.897 18.7095C16.2882 18.4051 15.8068 17.9845 15.4526 17.4478C15.0985 16.9054 14.9131 16.2939 14.8965 15.6133H17.1875C17.2041 15.9287 17.2926 16.2082 17.4531 16.4517C17.6191 16.6896 17.835 16.8722 18.1006 16.9995C18.3662 17.1268 18.654 17.1904 18.9639 17.1904C19.3291 17.1904 19.6584 17.1047 19.9517 16.9331C20.245 16.756 20.4746 16.507 20.6406 16.186C20.8066 15.8595 20.8896 15.486 20.8896 15.0654C20.8896 14.6393 20.8039 14.263 20.6323 13.9365C20.4608 13.6045 20.2256 13.3499 19.9268 13.1729C19.6279 12.9902 19.2904 12.8962 18.9141 12.8906C18.5101 12.8906 18.1698 12.9681 17.8931 13.123C17.6219 13.278 17.3923 13.5381 17.2041 13.9033H15.0625L15.6602 6.98047H22.5498V9.02246H17.7852L17.5029 12.0605H17.5859C17.7686 11.7617 18.0314 11.5182 18.3745 11.3301C18.7176 11.1419 19.1354 11.0479 19.6279 11.0479C20.3086 11.0479 20.9146 11.2166 21.4458 11.5542C21.9826 11.8918 22.4004 12.3621 22.6992 12.9653C22.998 13.563 23.1475 14.2409 23.1475 14.999C23.1475 15.807 22.9676 16.5291 22.6079 17.1655C22.2537 17.7964 21.7585 18.2889 21.1221 18.6431C20.4857 18.9917 19.7663 19.166 18.9639 19.166Z" fill="#8935E0"/>
</svg>
