<svg width="80" height="80" viewBox="0 0 80 80" fill="none" xmlns="http://www.w3.org/2000/svg">
<g id="Group 1020101884">
<g id="Group 1020101852">
<g id="Group 1020101846">
<path id="Vector" d="M77.0758 25.851L59.6062 8.36854C58.6014 7.36366 57.2615 6.80968 55.8315 6.80968C54.4015 6.80968 53.0616 7.36366 52.0567 8.38143L40.0625 20.3756L27.9266 8.23971C26.9217 7.23483 25.569 6.66797 24.1518 6.66797C22.7347 6.66797 21.3819 7.22194 20.377 8.23971L2.90749 25.7222C1.90261 26.727 1.34863 28.0798 1.34863 29.5098C1.34863 30.9398 1.90261 32.2797 2.90749 33.2974L15.1465 45.5493L11.5779 49.118C10.8435 49.8523 10.4441 50.8185 10.4441 51.8621C10.4441 52.8927 10.8435 53.8718 11.5779 54.6062C12.2993 55.3276 13.2527 55.727 14.2704 55.7399C14.3091 55.7399 14.3477 55.7399 14.3864 55.7399L16.6023 55.7141L16.5765 57.93C16.5765 57.93 16.5765 58.0073 16.5765 58.046C16.5765 59.0637 16.9888 60.0171 17.7102 60.7386C18.4317 61.46 19.385 61.8594 20.4028 61.8723C20.4415 61.8723 20.4801 61.8723 20.5188 61.8723L22.7347 61.8465L22.7089 64.0624C22.7089 64.0624 22.7089 64.1397 22.7089 64.1784C22.7089 65.1961 23.1212 66.1495 23.8426 66.8709C24.5641 67.5924 25.5174 67.9918 26.5352 68.0047C26.5738 68.0047 26.6125 68.0047 26.6511 68.0047L28.867 67.9789L28.8413 70.1948C28.8413 70.1948 28.8413 70.2721 28.8413 70.3107C28.8413 71.3285 29.2535 72.2819 29.975 73.0033C30.7093 73.7377 31.6756 74.137 32.7191 74.137C33.7626 74.137 34.7289 73.7377 35.4503 73.0033L39.019 69.4347L42.5747 72.9904C43.5796 73.9953 44.9195 74.5493 46.3495 74.5493C47.7795 74.5493 49.1194 73.9953 50.1242 72.9904L64.927 58.1748L65.1202 57.8527L65.365 57.7368L67.5938 55.4951C69.6809 53.408 69.6809 50.0198 67.5938 47.9327L65.1074 45.4463L77.1016 33.4392C79.1886 31.3521 79.1886 27.9638 77.1016 25.8767L77.0758 25.851Z" fill="white" stroke="#666666" stroke-width="2.5" stroke-linecap="round" stroke-linejoin="round"/>
<path id="Vector_2" d="M20.5064 45.6594C18.8187 43.9846 16.1004 43.9717 14.4127 45.6594L11.2692 48.8029C9.58149 50.4777 9.58149 53.2089 11.2692 54.8966C12.9569 56.5714 15.6752 56.5843 17.35 54.8966L20.4935 51.7531C22.1812 50.0654 22.1683 47.3471 20.4935 45.6594H20.5064Z" fill="white" stroke="#666666" stroke-width="2.5" stroke-linecap="round" stroke-linejoin="round"/>
<path id="Vector_3" d="M26.626 51.7805C24.9512 50.1057 22.22 50.0928 20.5323 51.7805L17.3888 54.924C15.7011 56.6117 15.7011 59.33 17.3888 61.0177C19.0765 62.7054 21.7949 62.7054 23.4697 61.0177L26.6132 57.8742C28.288 56.1865 28.288 53.4682 26.6132 51.7805H26.626Z" fill="white" stroke="#666666" stroke-width="2.5" stroke-linecap="round" stroke-linejoin="round"/>
<path id="Vector_4" d="M32.7328 57.9055C31.058 56.2307 28.3267 56.2178 26.6519 57.9055L23.5084 61.049C21.8208 62.7367 21.8208 65.455 23.5084 67.1427C25.1833 68.8304 27.9145 68.8304 29.5893 67.1427L32.7328 63.9992C34.4205 62.3244 34.4205 59.5932 32.7328 57.9055Z" fill="white" stroke="#666666" stroke-width="2.5" stroke-linecap="round" stroke-linejoin="round"/>
<path id="Vector_5" d="M38.853 64.0266C37.1653 62.3518 34.447 62.3389 32.7722 64.0266L29.6287 67.1701C27.9539 68.8449 27.9539 71.5761 29.6287 73.2638C31.3164 74.9515 34.0347 74.9515 35.7095 73.2638L38.853 70.1203C40.5278 68.4455 40.5278 65.7143 38.853 64.0266Z" fill="white" stroke="#666666" stroke-width="2.5" stroke-linecap="round" stroke-linejoin="round"/>
<path id="Vector_6" d="M53.6294 46.5039L64.2451 57.1196" stroke="#666666" stroke-width="2.5" stroke-linecap="round" stroke-linejoin="round"/>
<path id="Vector_7" d="M47.3809 52.7539L57.9966 63.3696" stroke="#666666" stroke-width="2.5" stroke-linecap="round" stroke-linejoin="round"/>
<path id="Vector_8" d="M41.1304 59.0195L51.7332 69.6352" stroke="#666666" stroke-width="2.5" stroke-linecap="round" stroke-linejoin="round"/>
<path id="Vector_9" d="M76.7284 25.4645L59.6067 8.3299C57.4037 6.11399 53.8093 6.11399 51.6063 8.3299L45.4224 14.5267L70.5445 39.6746L76.7284 33.4778C78.9314 31.2619 78.9314 27.6804 76.7284 25.4645Z" fill="url(#paint0_linear_1209_16434)" stroke="#666666" stroke-width="2.5" stroke-miterlimit="10"/>
<path id="Vector_10" d="M27.9662 8.32023C25.7632 6.11721 22.2074 6.11721 20.0044 8.32023L2.98576 25.3646C0.782741 27.5677 0.782741 31.1234 2.98576 33.3264L9.01508 39.3686L33.9955 14.3495L27.9662 8.32023Z" fill="white" stroke="#666666" stroke-width="2.5" stroke-linecap="round" stroke-linejoin="round"/>
<g id="Vector_11">
<path d="M44.5327 15.2383L32.8863 26.8975C31.1342 28.6496 31.1342 31.4839 32.8863 33.236C34.6385 34.9882 37.4727 34.9882 39.2249 33.236L50.7037 21.7443" fill="white"/>
<path d="M44.5327 15.2383L32.8863 26.8975C31.1342 28.6496 31.1342 31.4839 32.8863 33.236C34.6385 34.9882 37.4727 34.9882 39.2249 33.236L50.7037 21.7443" stroke="#666666" stroke-width="2.5" stroke-linecap="round" stroke-linejoin="round"/>
</g>
<path id="Vector_12" d="M39.5723 69.9124L42.2133 72.5534C44.4163 74.7565 47.9721 74.7565 50.1751 72.5534L67.2066 55.509C69.3968 53.306 69.3968 49.7374 67.2066 47.5472L46.3102 26.625" stroke="#666666" stroke-width="2.5" stroke-linecap="round" stroke-linejoin="round"/>
<path id="Vector_13" d="M11.9656 29.2789C11.9656 30.7476 10.7803 31.9329 9.31164 31.9329C7.84296 31.9329 6.65771 30.7476 6.65771 29.2789C6.65771 27.8102 7.84296 26.625 9.31164 26.625C10.7803 26.625 11.9656 27.8102 11.9656 29.2789Z" fill="url(#paint1_linear_1209_16434)"/>
</g>
</g>
</g>
<defs>
<linearGradient id="paint0_linear_1209_16434" x1="61.9015" y1="6.66797" x2="61.9015" y2="39.6746" gradientUnits="userSpaceOnUse">
<stop stop-color="#2F95E3"/>
<stop offset="1" stop-color="#61C7F2"/>
</linearGradient>
<linearGradient id="paint1_linear_1209_16434" x1="9.31164" y1="26.625" x2="9.31164" y2="31.9329" gradientUnits="userSpaceOnUse">
<stop stop-color="#2F95E3"/>
<stop offset="1" stop-color="#61C7F2"/>
</linearGradient>
</defs>
</svg>
