<svg width="148" height="157" viewBox="0 0 148 157" fill="none" xmlns="http://www.w3.org/2000/svg">
<g id="Group 1020101968">
<ellipse id="Ellipse 1803" cx="68" cy="152.499" rx="15" ry="4.5" fill="#333333" fill-opacity="0.15"/>
<ellipse id="Ellipse 1804" cx="110.5" cy="152.499" rx="14.5" ry="4.5" fill="#333333" fill-opacity="0.15"/>
<g id="Group 1020101963">
<g id="Group 1020101969">
<path id="Path 50" d="M48.9832 39.2194C48.9594 39.1596 48.963 39.0923 48.9931 39.0354C51.6611 33.999 52.4015 28.1607 51.0755 22.6164C49.7495 17.0721 46.4482 12.2031 41.7914 8.92353C37.1346 5.64394 31.4425 4.17929 25.7837 4.80453C20.1249 5.42977 14.8886 8.1019 11.0579 12.3193C7.22705 16.5367 5.0652 22.0093 4.97813 27.7097C4.89107 33.4101 6.88479 38.9464 10.585 43.2791C14.2852 47.6118 19.4375 50.4431 25.0745 51.2413C30.7115 52.0396 36.4457 50.7499 41.2004 47.6145C41.2486 47.5831 41.3071 47.5717 41.3635 47.5829L48.7649 49.0469C50.6987 49.4294 52.2884 47.5164 51.5588 45.685L48.9832 39.2194Z" fill="white" stroke="#222222" stroke-width="1.61687" stroke-linejoin="round"/>
<g id="Vector">
<path fill-rule="evenodd" clip-rule="evenodd" d="M24.8665 17.3785C24.7258 15.6557 26.8397 14.4229 28.9144 14.4229C30.9891 14.4229 33.103 15.6557 32.9624 17.3785L31.9517 30.5645C31.9394 31.1261 31.6209 31.6627 31.0624 32.0604C30.4927 32.4661 29.7201 32.694 28.9144 32.694C28.1088 32.694 27.3362 32.4661 26.7665 32.0604C26.208 31.6627 25.8894 31.1261 25.8771 30.5645L24.8665 17.3785Z" fill="#1F4F82"/>
<path d="M31.9554 37.7694C31.9554 39.4512 30.5939 40.8146 28.9144 40.8146C27.235 40.8146 25.8735 39.4512 25.8735 37.7694C25.8735 36.0876 27.235 34.7242 28.9144 34.7242C30.5939 34.7242 31.9554 36.0876 31.9554 37.7694Z" fill="#1F4F82"/>
</g>
</g>
<g id="Group 1020101961">
<g id="Group 1020101959">
<path id="Vector_2" d="M53.7664 99.2468C51.0244 100.637 48.5274 102.32 46.2755 104.294C40.7798 109.109 38.7145 113.736 40.0914 118.187C41.2115 121.775 44.0352 124.333 48.5508 125.852C51.6778 126.951 56.8935 124.871 64.1978 119.59C68.655 116.33 72.9839 112.637 77.1961 108.501C77.2544 108.442 77.3128 108.384 77.3478 108.349L77.9428 107.695C78.1295 107.426 79.0863 106.713 80.8015 105.58C82.5051 104.411 82.9835 102.74 82.2601 100.532C81.7467 99.0014 80.9766 97.868 79.9614 97.1319C78.3629 95.9634 75.9009 95.4026 72.5638 95.4142C68.6667 95.496 65.2479 95.8115 62.2959 96.349C59.3671 96.9099 56.5318 97.8797 53.7781 99.2468H53.7664Z" fill="white"/>
<path id="Vector_3" d="M50.3479 126.907C49.5895 126.907 48.901 126.802 48.2826 126.58C43.5454 124.99 40.535 122.245 39.3332 118.412C37.8746 113.668 40.0333 108.714 45.7506 103.701C48.0493 101.691 50.6279 99.9622 53.4283 98.56C56.2286 97.1579 59.169 96.153 62.1561 95.5921C65.1198 95.0313 68.6086 94.7158 72.529 94.634C76.0645 94.5639 78.6548 95.2182 80.405 96.4919C81.5485 97.3098 82.412 98.5834 82.9837 100.266C84.0338 103.456 82.6103 105.255 81.2218 106.202C79.0282 107.662 78.6315 108.048 78.5615 108.13L77.9197 108.842L77.8264 108.936L77.7447 109.018C73.5208 113.166 69.1219 116.916 64.653 120.188C58.4456 124.675 53.7433 126.883 50.3596 126.883L50.3479 126.907ZM72.7274 96.1997H72.5641C68.7369 96.2815 65.3415 96.597 62.4594 97.1345C59.6124 97.672 56.8121 98.6184 54.14 99.9622C51.468 101.306 48.9944 102.965 46.7891 104.881C41.5735 109.45 39.5665 113.855 40.8267 117.956C41.8768 121.321 44.4788 123.658 48.7844 125.107C51.6547 126.112 56.6837 124.044 63.7313 118.95C68.1418 115.725 72.4824 112.021 76.6362 107.943L77.348 107.16C77.418 107.055 77.6514 106.716 80.3467 104.916C81.7586 103.947 82.1203 102.626 81.5019 100.757C81.0351 99.3896 80.3584 98.3731 79.4833 97.7538C78.0481 96.7139 75.7728 96.1881 72.7041 96.1881L72.7274 96.1997Z" fill="#222222"/>
<path id="Vector_4" d="M94.7455 84.013C91.9569 84.5388 89.8566 85.8474 88.4331 87.9623C86.1345 91.3509 85.7844 94.8796 87.3829 98.5368C87.7097 99.3197 88.4681 100.722 89.6582 102.755C90.5917 104.367 91.1634 105.653 91.3735 106.587C92.5403 113.201 95.2823 118.179 99.5995 121.509C104.232 125.096 109.681 125.855 115.923 123.787C118.467 122.934 120.252 121.415 121.291 119.23C122.224 117.267 122.434 115.035 121.932 112.535C121.431 110.093 120.369 107.92 118.759 105.992C117.055 103.982 115.048 102.65 112.75 102.031C112.913 103.643 112.96 105.349 112.89 107.137C112.948 105.349 112.901 103.643 112.75 102.031C112.388 98.5252 111.548 95.4288 110.206 92.7647C108.491 89.3762 106.11 86.899 103.077 85.3333C100.346 83.9429 97.5692 83.5105 94.7572 84.0247L94.7455 84.013Z" fill="white"/>
<path id="Vector_5" d="M109.424 125.685C105.655 125.685 102.224 124.493 99.1439 122.109C94.6867 118.662 91.8163 113.486 90.6261 106.697C90.4395 105.879 89.891 104.664 89.0043 103.122C87.7908 101.042 87.0324 99.6281 86.694 98.8219C85.0021 94.9309 85.3755 91.1217 87.8258 87.5112C89.366 85.2327 91.6529 83.7955 94.64 83.2347C97.6037 82.6855 100.567 83.1529 103.449 84.6135C106.623 86.2493 109.132 88.8549 110.917 92.3837C112.224 95.001 113.087 98.0273 113.484 101.404C115.713 102.117 117.696 103.484 119.365 105.459C121.057 107.48 122.177 109.794 122.714 112.341C123.25 115.005 123.005 117.424 122.013 119.527C120.893 121.899 118.933 123.57 116.191 124.493C113.834 125.276 111.582 125.661 109.424 125.661V125.685ZM97.032 84.5667C96.3319 84.5667 95.6201 84.6368 94.9084 84.7654C92.3064 85.2561 90.4044 86.4363 89.0976 88.3876C86.939 91.5774 86.6123 94.7907 88.1058 98.2143C88.4209 98.9621 89.1793 100.353 90.3344 102.351C91.3146 104.057 91.898 105.377 92.1313 106.393C93.2631 112.82 95.9352 117.681 100.077 120.882C104.535 124.341 109.645 125.042 115.678 123.044C118.035 122.261 119.645 120.894 120.59 118.896C121.442 117.096 121.64 115.005 121.173 112.68C120.695 110.39 119.68 108.298 118.163 106.487C116.844 104.933 115.316 103.799 113.624 103.133C113.706 104.43 113.717 105.774 113.671 107.153C113.659 107.585 113.251 107.877 112.866 107.901C112.434 107.889 112.096 107.527 112.119 107.095C112.177 105.354 112.131 103.671 111.979 102.094C111.629 98.6933 110.8 95.667 109.517 93.0964C107.883 89.8715 105.596 87.4879 102.726 86.0039C100.847 85.0458 98.9455 84.5667 97.0203 84.5667H97.032Z" fill="#222222"/>
<path id="Vector_6" d="M110.159 147.684C114.663 150.629 119.68 152.101 125.246 152.101H140.298C141.931 152.101 143.413 151.716 144.708 150.944C146.575 149.846 147.123 148.21 146.353 146.06C145.023 142.672 142.771 140.72 139.609 140.206C137.392 139.809 135.49 140.031 133.915 140.861C131.99 141.842 129.166 142.391 125.456 142.508C120.088 142.742 115.841 141.48 112.702 138.734C109.494 135.906 105.83 133.721 101.723 132.167C98.7357 131.022 96.4371 130.45 94.8152 130.45C91.5364 130.45 89.4245 130.543 88.4677 130.73C85.2356 131.42 83.6138 133.055 83.6138 135.649C83.6138 138.243 84.2905 139.832 85.6324 140.533C86.3208 140.907 86.9742 141.013 87.6276 140.849C91.8515 140.639 95.982 141.211 100.008 142.567C103.205 143.665 106.577 145.371 110.147 147.673L110.159 147.684Z" fill="white"/>
<path id="Vector_7" d="M133.88 140.799L133.285 141.044C135.374 143.019 136.599 146.676 136.96 152.039H140.263C141.896 152.039 143.378 151.665 144.673 150.917C146.517 149.796 147.065 148.16 146.318 145.998C144.988 142.633 142.736 140.693 139.574 140.179C137.357 139.782 135.455 139.992 133.88 140.799ZM96.192 141.488C98.4906 141.99 100.789 142.75 103.1 143.79C104.78 141.044 105.935 137.924 106.588 134.419C104.476 133.25 102.259 132.281 99.9375 131.486C98.2339 134.209 96.9971 137.539 96.2037 141.488M90.3112 140.764C89.6928 137.071 90.7546 133.601 93.52 130.364C90.9063 130.318 88.841 130.528 87.3359 130.984C84.8505 131.79 83.6021 133.332 83.6021 135.587C83.6021 138.146 84.2788 139.782 85.6206 140.506C86.3091 140.857 86.9741 140.95 87.6392 140.787L90.3112 140.752M121.979 142.411C122.772 144.923 123.052 148.101 122.819 151.946C123.402 152.004 124.196 152.039 125.211 152.039H129.47C129.528 148.242 128.933 144.982 127.661 142.259C125.922 142.528 124.021 142.586 121.967 142.411M110.124 147.622C111.722 148.697 113.426 149.585 115.258 150.275C117.066 147.33 118.023 144.468 118.151 141.71C115.969 141.044 114.149 140.039 112.679 138.684H112.621C111.827 141.441 110.357 144.035 108.21 146.442L110.135 147.622H110.124Z" fill="#222222"/>
<path id="Vector_8" d="M140.321 152.92H125.269C119.587 152.92 114.371 151.389 109.762 148.375C106.274 146.143 102.901 144.449 99.7627 143.35C95.9006 142.053 91.8751 141.492 87.7795 141.679C86.9744 141.866 86.1343 141.726 85.3059 141.282C83.6957 140.441 82.8789 138.56 82.8789 135.709C82.8789 133.64 83.824 130.988 88.3513 130.03C89.3781 129.831 91.49 129.738 94.8271 129.738C96.5773 129.738 98.9343 130.31 102.038 131.502C106.204 133.103 109.984 135.358 113.251 138.209C115.41 140.137 118.245 141.305 121.687 141.703C124.242 142.007 126.996 141.855 129.878 141.282C130.31 141.2 130.707 141.469 130.8 141.89C130.882 142.31 130.613 142.719 130.193 142.813C127.16 143.432 124.242 143.584 121.524 143.257C117.755 142.824 114.628 141.527 112.236 139.389C109.109 136.667 105.492 134.505 101.501 132.963C98.6192 131.864 96.379 131.304 94.8388 131.304C91.6534 131.304 89.5764 131.397 88.678 131.572C84.8975 132.378 84.4541 134.33 84.4541 135.732C84.4541 137.964 84.9908 139.378 86.0643 139.927C86.5894 140.207 87.0561 140.289 87.4995 140.172C87.5462 140.16 87.6045 140.149 87.6512 140.149C91.9567 139.938 96.2039 140.523 100.288 141.901C103.555 143.046 107.032 144.787 110.626 147.089C114.978 149.94 119.914 151.389 125.293 151.389H140.345C141.838 151.389 143.192 151.05 144.37 150.373C145.899 149.461 146.307 148.188 145.677 146.388C144.452 143.292 142.445 141.539 139.528 141.037C137.486 140.686 135.736 140.885 134.324 141.621L133.11 142.065C132.702 142.205 132.259 142.007 132.118 141.598C131.967 141.189 132.177 140.745 132.585 140.604L133.705 140.195C135.339 139.354 137.416 139.109 139.796 139.506C143.238 140.09 145.712 142.229 147.135 145.839C148.034 148.375 147.357 150.396 145.163 151.716C143.728 152.534 142.118 152.943 140.345 152.943L140.321 152.92Z" fill="#222222"/>
<path id="Vector_9" d="M58.1538 129.841C58.1538 134.492 58.6205 138.897 59.554 143.045C59.974 145.124 60.4058 146.725 60.8608 147.87L59.554 148.244C58.6205 148.677 58.1538 149.319 58.1538 150.172C58.1538 151.049 58.6322 151.633 59.589 151.948C60.0907 152.077 60.9075 152.135 62.051 152.135H78.3164C79.0048 151.154 79.9849 150.196 81.2684 149.237C83.8354 147.263 86.6824 146.281 89.7862 146.281C92.8899 146.281 95.6902 147.263 98.3039 149.237C99.5874 150.196 100.579 151.154 101.256 152.135H117.521C118.665 152.135 119.482 152.077 119.983 151.948C120.94 151.633 121.419 151.049 121.419 150.172C121.419 149.296 120.975 148.677 120.077 148.244L118.711 147.87C119.167 146.725 119.622 145.124 120.077 143.045C120.963 138.897 121.419 134.492 121.419 129.841C121.419 117.28 116.156 108.482 105.62 103.434C102.318 101.88 98.7006 100.77 94.7335 100.104L89.7862 99.6016C84.5238 99.6483 79.2498 100.922 73.9875 103.434C63.4395 108.482 58.1538 117.28 58.1538 129.841Z" fill="white"/>
<path id="Vector_10" d="M117.521 152.924H101.256C100.999 152.924 100.766 152.795 100.614 152.597C99.9841 151.697 99.0507 150.774 97.8372 149.874C95.3752 148.016 92.6565 147.07 89.7745 147.07C86.8924 147.07 84.1504 148.016 81.7235 149.874C80.4983 150.786 79.5648 151.697 78.9348 152.597C78.7947 152.807 78.5497 152.924 78.293 152.924H62.0276C60.8141 152.924 59.9507 152.854 59.3789 152.714C58.0604 152.281 57.3604 151.393 57.3604 150.178C57.3604 149.372 57.6754 148.25 59.2039 147.537C59.2389 147.514 59.2739 147.502 59.3206 147.491L60.6274 147.117C61.0358 147 61.4675 147.234 61.5842 147.654C61.7009 148.063 61.4675 148.496 61.0475 148.612L59.799 148.963C59.0056 149.349 58.9005 149.804 58.9005 150.166C58.9005 150.552 59.0056 150.949 59.799 151.206C60.044 151.265 60.6858 151.358 62.0159 151.358H77.8846C78.5964 150.435 79.5648 149.512 80.7667 148.612C83.4503 146.544 86.4841 145.504 89.7511 145.504C93.0182 145.504 96.0053 146.556 98.7356 148.624C99.9374 149.512 100.906 150.435 101.618 151.358H117.486C118.816 151.358 119.458 151.265 119.75 151.195C120.485 150.949 120.59 150.564 120.59 150.178C120.59 149.816 120.497 149.36 119.75 148.975L118.455 148.624C118.046 148.507 117.801 148.087 117.906 147.666C118.023 147.245 118.443 147 118.863 147.117L120.228 147.491C120.228 147.491 120.322 147.526 120.368 147.537C121.839 148.25 122.142 149.36 122.142 150.166C122.142 151.37 121.442 152.27 120.17 152.679C119.552 152.831 118.688 152.901 117.475 152.901L117.521 152.924ZM60.2657 146.942C59.9273 146.942 59.6123 146.719 59.519 146.381C58.0954 141.415 57.372 135.853 57.372 129.847C57.372 121.948 59.5423 115.335 63.8362 110.17C64.1045 109.843 64.5946 109.796 64.933 110.065C65.2597 110.346 65.3064 110.836 65.038 111.163C60.9891 116.036 58.9356 122.334 58.9356 129.847C58.9356 135.701 59.6356 141.123 61.0242 145.948C61.1408 146.357 60.9075 146.79 60.4874 146.906C60.4174 146.93 60.3474 146.942 60.2774 146.942H60.2657ZM119.237 146.942C119.167 146.942 119.097 146.942 119.015 146.906C118.606 146.79 118.361 146.357 118.478 145.937C119.902 140.982 120.625 135.561 120.625 129.835C120.625 123.701 119.26 118.361 116.553 113.991C116.331 113.629 116.436 113.15 116.81 112.916C117.171 112.694 117.65 112.799 117.883 113.173C120.73 117.8 122.177 123.409 122.177 129.835C122.177 135.713 121.43 141.275 119.972 146.369C119.878 146.708 119.563 146.93 119.225 146.93L119.237 146.942Z" fill="#222222"/>
<path id="Vector_11" d="M60.4876 133.978C60.0675 133.171 59.3091 132.599 58.189 132.26C58.294 134.772 58.4923 137.016 58.784 138.99C59.6708 138.266 60.2659 137.448 60.5576 136.525C60.8843 135.614 60.8726 134.761 60.4993 133.966M64.4664 118.192C63.673 117.257 62.1911 117.304 60.0209 118.32C59.1107 120.856 58.5273 123.66 58.2823 126.733C63.5446 122.27 65.6099 119.43 64.4664 118.204V118.192Z" fill="#222222"/>
<path id="Vector_12" d="M121.29 132.264C120.217 132.592 119.458 133.164 119.015 133.982C118.618 134.777 118.595 135.618 118.921 136.541C119.248 137.452 119.855 138.27 120.73 139.006C121.057 136.412 121.243 134.169 121.29 132.276M119.458 118.301C117.276 117.285 115.794 117.238 115.013 118.173C113.939 119.4 116.004 122.239 121.232 126.703C120.998 123.711 120.415 120.907 119.458 118.29V118.301Z" fill="#222222"/>
<path id="Vector_13" d="M137.334 24.7866C140.216 25.5812 142.386 27.2638 143.845 29.8344C145.291 32.405 145.618 35.1275 144.836 37.9902C144.113 40.6309 142.631 42.6757 140.414 44.1362C140.227 44.2531 140.041 44.3816 139.831 44.4984C137.252 45.959 134.533 46.2979 131.651 45.515C128.769 44.7321 126.611 43.0379 125.105 40.4556C123.659 37.885 123.332 35.1625 124.114 32.2998C124.37 31.3767 124.709 30.5354 125.129 29.7759C125.199 29.6708 125.269 29.5539 125.316 29.4371C126.459 27.8597 127.567 26.738 128.653 26.0953L129.119 25.8032C131.733 24.3426 134.463 24.0155 137.322 24.7983L137.334 24.7866Z" fill="white"/>
<path id="Vector_14" d="M139.831 45.2484C139.563 45.2484 139.294 45.1082 139.154 44.8511C138.944 44.4772 139.072 43.9981 139.446 43.7878C139.633 43.6827 139.808 43.5658 139.983 43.4607C142.071 42.1053 143.401 40.2357 144.09 37.7586C144.825 35.0829 144.522 32.6057 143.18 30.1987C141.814 27.7917 139.831 26.2493 137.136 25.5132C134.464 24.7771 131.967 25.0809 129.516 26.448L129.085 26.7167C128.104 27.3126 127.066 28.3409 126.004 29.8014C125.946 29.93 125.876 30.0468 125.794 30.1754C125.549 30.5376 125.071 30.631 124.721 30.3857C124.359 30.1403 124.266 29.6612 124.511 29.3107C124.557 29.2406 124.604 29.1588 124.639 29.0887C124.662 29.042 124.686 28.9952 124.721 28.9602C125.934 27.2776 127.101 26.1208 128.291 25.4081L128.746 25.1276C131.57 23.5619 134.522 23.1997 137.567 24.0293C140.636 24.8706 142.981 26.6934 144.545 29.4509C146.085 32.1968 146.447 35.1413 145.607 38.1909C144.837 41.0069 143.238 43.227 140.858 44.781C140.659 44.9095 140.449 45.0381 140.239 45.1666C140.123 45.2367 139.983 45.2718 139.854 45.2718L139.831 45.2484Z" fill="#222222"/>
<path id="Vector_15" d="M89.1677 11.9798C86.2857 11.1852 83.567 11.5241 80.9883 12.9963C78.433 14.4686 76.7644 16.6302 75.9827 19.4929C75.2593 22.1336 75.481 24.6458 76.6478 27.0411C76.7411 27.2398 76.8461 27.4384 76.9628 27.6487C78.4213 30.231 80.6033 31.9136 83.4736 32.6964C86.344 33.4793 89.0627 33.1521 91.6763 31.6916C94.2317 30.2193 95.9002 28.0577 96.682 25.195C96.9387 24.2719 97.0787 23.3722 97.102 22.4958C97.102 22.3673 97.102 22.2388 97.102 22.1103C96.927 20.1706 96.542 18.6399 95.9352 17.5299L95.6785 17.0392C94.1733 14.4569 91.9914 12.7626 89.1327 11.9798H89.1677Z" fill="white"/>
<path id="Vector_16" d="M76.9747 28.3951C76.7063 28.3951 76.438 28.2549 76.298 27.9978C76.1696 27.7758 76.0646 27.5655 75.9596 27.3435C74.7111 24.7962 74.4661 22.0738 75.2362 19.2461C76.0763 16.1964 77.8848 13.8478 80.6035 12.2821C83.3572 10.7164 86.2976 10.3542 89.378 11.1955C92.4233 12.0367 94.7803 13.8595 96.3905 16.6171L96.6589 17.1429C97.3123 18.3464 97.7207 19.9472 97.9074 22.0153C97.9074 22.0621 97.9074 22.1088 97.9074 22.1672C97.9074 22.249 97.9074 22.3425 97.9074 22.4243C97.9307 22.8566 97.604 23.2188 97.1723 23.2422C96.7522 23.2889 96.3788 22.9384 96.3555 22.5061C96.3555 22.3659 96.3555 22.214 96.3555 22.0738C96.1922 20.2743 95.8304 18.8605 95.2937 17.8556L95.037 17.3532C93.6485 14.9579 91.6532 13.4272 88.9812 12.6794C86.2859 11.9433 83.8006 12.2471 81.3969 13.6142C79.005 14.9929 77.4881 16.9676 76.753 19.6434C76.0763 22.1205 76.2746 24.4107 77.3714 26.6424C77.4648 26.8294 77.5581 27.0163 77.6631 27.2033C77.8732 27.5772 77.7448 28.0562 77.3714 28.2666C77.2548 28.3367 77.1147 28.3717 76.9864 28.3717L76.9747 28.3951Z" fill="#222222"/>
<path id="Vector_17" d="M142.549 56.4307C140.017 41.5914 129.749 31.6946 111.722 26.7403C93.6949 21.7861 79.8098 25.0344 70.0435 36.4852C65.1429 42.199 62.0625 48.4034 60.8024 55.122C57.4886 55.6128 54.6533 57.2369 52.308 60.0179C50.231 62.5067 48.6442 65.7433 47.5474 69.7511C45.132 78.5612 49.6476 86.5067 61.0824 93.6226C66.8115 97.198 72.7506 99.8855 78.923 101.697L101.641 107.948L107.568 109.128C112.364 109.887 116.879 110.226 121.115 110.144C134.557 109.887 142.479 105.354 144.895 96.5437C145.992 92.5359 146.295 88.9487 145.793 85.7472C145.21 82.16 143.6 79.309 140.986 77.1941C143.308 70.7676 143.833 63.8621 142.549 56.4424V56.4307Z" fill="white"/>
<path id="Vector_18" d="M119.855 110.878C115.946 110.878 111.769 110.528 107.417 109.838L101.454 108.658C101.034 108.576 100.754 108.167 100.848 107.747C100.941 107.326 101.338 107.046 101.758 107.139L107.685 108.319C112.388 109.067 116.891 109.406 121.069 109.324C134.055 109.067 141.815 104.685 144.113 96.2958C145.175 92.4165 145.478 88.8995 144.988 85.8264C144.44 82.4613 142.911 79.7388 140.461 77.7524C140.123 77.4837 140.076 76.9929 140.344 76.6541C140.613 76.3152 141.103 76.2685 141.441 76.5372C144.207 78.769 145.91 81.8069 146.529 85.5694C147.042 88.8644 146.739 92.6034 145.618 96.693C143.11 105.83 134.86 110.598 121.104 110.866C120.695 110.866 120.275 110.878 119.855 110.878ZM78.8883 102.418C78.8183 102.418 78.7483 102.418 78.6666 102.383C72.4591 100.572 66.3917 97.8264 60.6393 94.2276C48.9245 86.9481 44.2572 78.6288 46.7659 69.4915C47.886 65.4019 49.5429 62.025 51.6898 59.4661C54.1635 56.5567 57.1855 54.8157 60.6743 54.3016C61.0944 54.2431 61.4911 54.5352 61.5611 54.9559C61.6194 55.3765 61.3277 55.7738 60.9077 55.8439C57.8039 56.2996 55.1086 57.8537 52.8916 60.471C50.8964 62.8546 49.3445 66.0328 48.2827 69.9004C45.9841 78.2899 50.418 86.0251 61.4794 92.8956C67.1151 96.4243 73.0542 99.1 79.1216 100.876C79.53 100.993 79.7751 101.425 79.6467 101.846C79.5534 102.185 79.2383 102.407 78.8999 102.407L78.8883 102.418ZM141.558 75.8595C141.488 75.8595 141.418 75.8595 141.36 75.8362C140.939 75.7193 140.694 75.2987 140.811 74.878C141.85 71.0221 142.363 67.026 142.328 63.0182C142.305 56.8371 140.951 51.2285 138.302 46.3327C138.092 45.9588 138.232 45.4797 138.618 45.2811C138.991 45.0708 139.469 45.2227 139.668 45.5966C142.445 50.7144 143.857 56.58 143.88 63.0182C143.915 67.1662 143.39 71.2909 142.316 75.2987C142.223 75.6492 141.908 75.8712 141.57 75.8712L141.558 75.8595ZM61.2927 53.7758C61.2227 53.7758 61.1527 53.7758 61.0827 53.7407C60.6743 53.6239 60.4293 53.1915 60.5459 52.7826C61.6778 48.7981 63.3346 44.989 65.4582 41.4369C68.7603 35.9218 72.9725 31.6102 77.9665 28.619C78.3399 28.397 78.8183 28.5138 79.0283 28.8877C79.25 29.2616 79.1216 29.729 78.7599 29.951C73.9877 32.802 69.9621 36.9267 66.7884 42.2314C64.7348 45.6667 63.1363 49.359 62.0395 53.2032C61.9461 53.5421 61.6311 53.7641 61.2927 53.7641V53.7758ZM125.246 32.989C125.117 32.989 124.977 32.9539 124.861 32.8838C120.987 30.6521 116.483 28.8293 111.501 27.4622C106.507 26.0951 101.711 25.359 97.2423 25.2889C96.8106 25.2889 96.4722 24.9267 96.4722 24.4943C96.4722 24.062 96.8689 23.7348 97.2656 23.7231C101.863 23.7933 106.798 24.5411 111.909 25.9549C117.02 27.3687 121.64 29.2382 125.631 31.5284C126.004 31.7387 126.133 32.2178 125.923 32.5917C125.783 32.8371 125.514 32.9773 125.246 32.9773V32.989Z" fill="#222222"/>
<path id="Vector_19" d="M117.16 36.6361L111.583 35.1055L111.641 34.8951C111.828 34.2291 111.734 33.6215 111.373 33.049C111.034 32.4647 110.556 32.0792 109.914 31.9039C109.272 31.7286 108.642 31.7987 108.07 32.1376C107.475 32.4414 107.079 32.9321 106.904 33.5865L106.845 33.7968L101.268 32.2661C100.603 32.0792 99.9961 32.161 99.4243 32.4998C98.8293 32.8036 98.4325 33.306 98.2459 33.9837C98.0708 34.603 98.1642 35.2223 98.5142 35.8299C98.8293 36.4141 99.3193 36.788 99.9727 36.975L105.55 38.5056L104.512 42.2914L101.21 41.38C100.568 41.2048 99.9494 41.2983 99.366 41.6488C98.7592 41.9993 98.3625 42.4784 98.1992 43.0977C98.0125 43.7637 98.1058 44.3947 98.4442 45.0022C98.7826 45.5748 99.2726 45.937 99.9144 46.1123L103.216 47.0237L102.948 47.9818C102.773 48.6011 102.866 49.2204 103.216 49.828C103.532 50.4122 104.022 50.7861 104.675 50.973C105.317 51.1483 105.923 51.0665 106.519 50.7393C107.125 50.3888 107.522 49.9097 107.685 49.2905L107.954 48.3323L111.221 49.232C111.886 49.419 112.504 49.3489 113.076 49.0334C113.648 48.6712 114.021 48.1688 114.208 47.5027C114.383 46.8835 114.313 46.2759 113.998 45.6683C113.671 45.0607 113.181 44.6634 112.516 44.4881L109.249 43.5884L110.287 39.8026L115.865 41.3333C116.483 41.5086 117.102 41.4268 117.708 41.0996C118.315 40.7491 118.712 40.27 118.875 39.6507C119.062 38.973 118.98 38.3421 118.618 37.7695C118.268 37.1736 117.778 36.7997 117.16 36.6244V36.6361Z" fill="#222222"/>
<path id="Vector_20" d="M60.4761 59.9815C59.5893 59.3972 58.0841 59.0116 55.9605 58.8364C54.9687 58.7312 53.6969 58.7663 52.1217 58.9532C50.6982 60.4255 49.508 62.1898 48.5396 64.223C49.9981 63.6037 51.7366 63.0662 53.7552 62.6105C54.4436 62.4586 56.1238 62.1081 58.8192 61.5589C60.8845 61.1733 61.4445 60.6475 60.4761 59.9815Z" fill="#222222"/>
<path id="Vector_21" d="M46.8706 79.1757C49.531 75.904 51.9113 73.8476 53.9999 72.9946C56.1818 72.0715 56.6719 71.3237 55.4817 70.7512C54.2799 70.1786 52.588 70.1202 50.3944 70.5759C49.1109 70.7979 47.6874 71.2536 46.1122 71.943C45.8088 74.3032 46.0539 76.7103 46.8706 79.1757Z" fill="#222222"/>
<path id="Vector_22" d="M137.521 83.2063C139.481 84.9707 140.729 86.1274 141.289 86.6883C142.795 88.1255 144.032 89.4809 145 90.7662C145.21 88.5228 145.082 86.3962 144.615 84.3981C143.39 83.4517 142.293 82.7623 141.324 82.3183C139.411 81.3835 137.929 80.9395 136.867 80.9862C135.724 81.0797 135.945 81.8158 137.532 83.2063H137.521Z" fill="#222222"/>
<path id="Vector_23" d="M135.829 95.5144C137.171 97.2788 138.151 100.258 138.758 104.465C140.648 102.887 142.106 100.948 143.145 98.6459C142.188 97.3022 141.196 96.1805 140.158 95.2807C138.513 93.7384 137.031 92.9322 135.701 92.827C134.382 92.6985 134.429 93.5982 135.829 95.5028V95.5144Z" fill="#222222"/>
<path id="Vector_24" d="M95.3755 77.2264C94.7105 77.5418 94.0804 77.7638 93.4736 77.8924C93.7303 80.1825 94.4888 81.4912 95.7373 81.8184C97.0091 82.1689 98.3276 81.4328 99.7161 79.5866C99.2144 79.1543 98.771 78.6402 98.3626 78.0443L97.3125 75.9878L95.3872 77.2264H95.3755Z" fill="#FF5353"/>
<path id="Vector_25" d="M109.295 75.4602C109.319 73.1934 108.035 71.3706 105.421 69.9802C104.231 69.3025 102.271 68.5897 99.529 67.8302C96.787 67.0941 94.7334 66.6968 93.3566 66.6501C90.3812 66.5099 88.3509 67.433 87.2774 69.4193C86.099 71.4992 85.9589 73.3336 86.8574 74.9344C87.6508 76.3015 88.981 77.248 90.8712 77.7621C91.233 77.8672 91.6063 77.9374 92.003 77.9724C92.4814 78.0075 92.9715 77.9724 93.4616 77.8906C94.0683 77.7621 94.7101 77.5284 95.3635 77.2246L97.2887 75.986L98.3389 78.0425C98.7472 78.6384 99.2023 79.1525 99.6924 79.5849C99.9724 79.8186 100.264 80.0289 100.567 80.2275C100.964 80.4846 101.396 80.6715 101.863 80.7884C103.753 81.3025 105.398 81.1857 106.798 80.4145C108.408 79.5148 109.237 77.8672 109.26 75.4485L109.295 75.4602Z" fill="white"/>
<path id="Vector_26" d="M96.3903 82.6935C96.1103 82.6935 95.8419 82.6585 95.5619 82.5767C94.15 82.2028 93.2399 80.9175 92.8432 78.7558C92.5515 78.7675 92.2715 78.7675 91.9914 78.7558C91.5364 78.7091 91.1163 78.6273 90.7079 78.5104C88.631 77.9379 87.1141 76.8746 86.2274 75.3206C85.1889 73.4744 85.3289 71.3595 86.6357 69.0343C87.8492 66.7792 90.1479 65.7042 93.4383 65.8678C94.8851 65.9262 96.962 66.3235 99.7741 67.083C102.598 67.8658 104.581 68.5903 105.842 69.303C108.7 70.822 110.147 72.9019 110.112 75.4725C110.077 78.1716 109.109 80.0645 107.242 81.1044C105.655 81.9691 103.8 82.1093 101.723 81.5484C101.198 81.4199 100.684 81.1979 100.217 80.9058C100.101 80.8357 99.9958 80.7539 99.8908 80.6838C98.7356 82.0158 97.5688 82.6935 96.402 82.6935H96.3903ZM94.3717 78.4754C94.6401 79.9944 95.1768 80.8707 95.9703 81.081C96.787 81.3031 97.6971 80.8357 98.7006 79.6789C98.3622 79.3284 98.0472 78.9311 97.7555 78.5104L97.0437 77.12L95.8302 77.8912C95.3052 78.1482 94.8268 78.3352 94.3717 78.4754ZM100.252 79.0129C100.498 79.2232 100.766 79.4218 101.034 79.5971C101.361 79.8074 101.723 79.9593 102.096 80.0528C103.823 80.5202 105.246 80.4267 106.472 79.749C107.825 79.0012 108.502 77.5874 108.537 75.4608C108.56 73.4978 107.428 71.9321 105.071 70.6818C103.916 70.0275 102.003 69.3264 99.3424 68.5903C96.682 67.8775 94.6634 67.4802 93.3449 67.4335C90.6612 67.3167 88.911 68.0762 87.9776 69.7938C86.9274 71.6516 86.7991 73.2057 87.5575 74.5611C88.2459 75.7529 89.4011 76.5591 91.1046 77.0148C91.4313 77.1083 91.7697 77.1667 92.1198 77.2018C92.5048 77.2251 92.9249 77.2018 93.3566 77.1317C93.87 77.0148 94.4534 76.8162 95.0601 76.5241L96.9037 75.3323C97.0904 75.2154 97.3121 75.1804 97.5221 75.2388C97.7321 75.2972 97.9072 75.4374 98.0122 75.6361L99.0623 77.7042C99.3774 78.1482 99.7857 78.6156 100.229 79.0129H100.252Z" fill="#222222"/>
<path id="Vector_27" d="M97.1606 67.4535C97.0556 67.8391 97.219 68.3181 97.6623 68.914C98.1641 69.5917 98.7708 70.0241 99.4942 70.2227C100.253 70.433 101.023 70.3746 101.805 70.0474C102.481 69.7553 102.878 69.4282 102.983 69.0426C103.251 68.0611 102.411 67.3016 100.451 66.7641C98.5375 66.2383 97.4406 66.4603 97.1723 67.4418L97.1606 67.4535Z" fill="#222222"/>
<path id="Vector_28" d="M87.756 59.2779C87.0326 59.0793 86.3558 59.161 85.7258 59.5233C85.0723 59.8855 84.6406 60.423 84.4423 61.1357C84.2439 61.8485 84.3256 62.5729 84.7106 63.2156C85.0723 63.8582 85.6091 64.2672 86.3325 64.4658C87.0559 64.6645 87.7443 64.5827 88.3978 64.2321C89.0395 63.8699 89.4596 63.3207 89.6579 62.5729C89.8446 61.8952 89.7629 61.2175 89.4129 60.5398C89.0278 59.8972 88.4794 59.4765 87.756 59.2779Z" fill="#222222"/>
<path id="Vector_29" d="M116.6 68.0311C116.238 67.3885 115.701 66.9795 114.978 66.7809C114.254 66.5822 113.589 66.664 112.912 67.0145C112.259 67.4118 111.851 67.961 111.664 68.6387C111.466 69.3748 111.536 70.0642 111.897 70.7069C112.282 71.3495 112.831 71.7701 113.554 71.9688C114.278 72.1674 114.954 72.0856 115.584 71.7234C116.238 71.3612 116.67 70.812 116.88 70.0759C117.066 69.3982 116.973 68.7088 116.6 68.0311Z" fill="#222222"/>
<path id="Vector_30" d="M94.757 83.9892C91.9567 84.5034 89.8564 85.8237 88.4446 87.9503C86.1693 91.3505 85.8076 94.8792 87.3828 98.5365C87.7095 99.3077 88.4679 100.71 89.6581 102.743C90.5915 104.344 91.1632 105.606 91.3733 106.54C91.6183 108.036 91.9567 109.438 92.3651 110.747C92.3884 110.805 92.4117 110.864 92.4234 110.899C92.4467 111.004 92.4817 111.121 92.5518 111.238C93.6952 114.603 95.3754 117.419 97.5924 119.674C98.2108 120.34 98.8992 120.947 99.646 121.508C104.243 125.084 109.681 125.832 115.946 123.752C118.478 122.922 120.264 121.415 121.29 119.241C122.201 117.267 122.422 115.023 121.944 112.511C121.78 111.81 121.594 111.144 121.384 110.513C121.092 110.408 120.684 110.478 120.135 110.735C119.575 110.969 119.155 111.027 118.863 110.922C117.615 110.875 116.576 110.805 115.725 110.7C114.126 110.49 113.216 110.081 112.983 109.45C112.983 106.085 112.913 103.608 112.761 102.007C112.388 98.5014 111.536 95.405 110.206 92.7293C108.502 89.3408 106.133 86.8636 103.088 85.2862C100.334 83.8724 97.5574 83.4401 94.757 83.9776V83.9892Z" fill="white"/>
<path id="Vector_31" d="M109.377 125.683C105.631 125.683 102.213 124.503 99.1673 122.131C98.3972 121.559 97.6738 120.904 97.0204 120.215C94.7451 117.89 92.9832 114.957 91.8164 111.498C91.7697 111.417 91.723 111.288 91.688 111.159C91.6647 111.113 91.653 111.054 91.6297 110.996C91.198 109.652 90.8596 108.192 90.6029 106.673C90.4279 105.866 89.8795 104.663 88.9927 103.132C87.7792 101.052 87.0325 99.6502 86.6824 98.844C85.0022 94.953 85.3756 91.1322 87.8025 87.51C89.3194 85.2198 91.618 83.7826 94.6167 83.2218C97.5688 82.6492 100.544 83.1166 103.45 84.6005C106.635 86.2481 109.144 88.8654 110.917 92.3824C112.282 95.14 113.169 98.3416 113.542 101.929C113.694 103.565 113.764 106.088 113.764 109.454C113.764 109.886 113.414 110.236 112.982 110.236C112.551 110.236 112.201 109.886 112.201 109.454C112.201 106.135 112.131 103.658 111.991 102.081C111.629 98.6921 110.8 95.6541 109.517 93.0718C107.907 89.8586 105.62 87.4633 102.738 85.9793C100.159 84.659 97.5221 84.2383 94.9085 84.7408C92.2948 85.2315 90.3929 86.4116 89.0977 88.363C86.9508 91.5645 86.6241 94.7895 88.1059 98.213C88.421 98.9491 89.1677 100.34 90.3345 102.338C91.3147 104.02 91.9097 105.341 92.1314 106.357C92.3765 107.853 92.7032 109.232 93.1116 110.493C93.1466 110.564 93.1816 110.657 93.1932 110.739C93.1932 110.739 93.2049 110.797 93.2516 110.891C94.3834 114.221 96.0286 116.967 98.1522 119.128C98.7589 119.771 99.4124 120.355 100.112 120.893C104.546 124.34 109.645 125.029 115.701 123.019C118.046 122.248 119.645 120.904 120.59 118.906C121.43 117.095 121.629 114.992 121.185 112.655C121.033 112.012 120.847 111.358 120.648 110.762C120.508 110.353 120.73 109.909 121.138 109.781C121.547 109.64 121.99 109.862 122.119 110.271C122.329 110.914 122.527 111.615 122.702 112.328C123.215 115.027 122.97 117.446 122.002 119.561C120.87 121.933 118.922 123.592 116.191 124.492C113.823 125.274 111.547 125.672 109.389 125.672L109.377 125.683Z" fill="#222222"/>
<path id="Vector_32" d="M126.149 53.8372C124.805 53.3582 124.292 52.5071 124.083 51.8708C123.352 49.6373 125.243 46.7582 125.452 46.44C125.68 46.0969 126.145 46.0083 126.488 46.2364C126.831 46.4646 126.919 46.931 126.691 47.2741C126.216 47.9851 125.072 50.1018 125.501 51.4C125.652 51.8676 126.015 52.1879 126.604 52.4083C126.585 52.4016 127.386 52.5916 128.02 52.1492C128.558 51.7682 128.885 51.0257 128.993 49.9185C129.032 49.5084 129.395 49.2028 129.814 49.246C130.233 49.2892 130.529 49.6492 130.486 50.0686C130.331 51.6364 129.785 52.7569 128.86 53.3925C127.628 54.2368 126.215 53.8607 126.158 53.8406L126.149 53.8372Z" fill="#222222"/>
<path id="Vector_33" d="M132.805 60.7399C132.114 60.3057 131.63 59.6249 131.522 58.8504C131.414 58.0759 131.657 57.2651 132.264 56.3626C132.441 56.0975 132.841 56.0467 133.131 56.238C133.428 56.434 133.529 56.8101 133.349 57.0818C132.893 57.7587 132.713 58.324 132.775 58.8127C132.872 59.5068 133.55 59.9429 134.172 60.013C134.545 60.055 134.822 59.9724 135.035 59.4367C135.16 59.1393 135.516 59.014 135.845 59.1574C136.183 59.3053 136.339 59.6604 136.221 59.9625C135.744 61.1305 134.831 61.2807 134.153 61.2027C133.663 61.1513 133.205 60.9828 132.809 60.7333L132.805 60.7399Z" fill="#222222"/>
</g>
</g>
</g>
</g>
</svg>
