<svg width="70" height="80" viewBox="0 0 70 80" fill="none" xmlns="http://www.w3.org/2000/svg">
<g id="Group 1020101855">
<g id="Group 1020101843">
<path id="Vector" d="M8.97661 27.2387C11.8508 11.3596 21.6979 1.33203 37.4611 1.33203C55.3251 1.33203 68.317 13.0351 68.317 32.0205C68.317 40.3209 65.1206 49.3431 59.2562 55.0143L58.6762 78.6654L29.9468 78.1756L32.009 63.5338C29.1348 63.8302 27.833 63.9334 25.0104 63.8045C11.2064 63.16 13.1397 58.9067 9.26016 44.4196L1.3335 38.3231L8.9895 27.2516L8.97661 27.2387Z" fill="white" stroke="#666666" stroke-width="2.5" stroke-linecap="round" stroke-linejoin="round"/>
<path id="Vector_2" d="M24.0483 34.4167C24.2166 35.0606 24.4155 35.6888 24.645 36.2856L23.3445 40.2118C23.9106 41.1698 24.5532 42.0807 25.2723 42.9288L29.3115 42.866C29.8011 43.29 30.3213 43.6669 30.8721 44.0281L32.0655 47.9858C33.06 48.4255 34.1003 48.771 35.1713 49.0223L38.3996 46.5252C38.7209 46.5409 39.0422 46.5566 39.3635 46.5566C39.6848 46.5566 40.0061 46.5566 40.3274 46.5252L40.3733 46.5566L43.5557 49.0066C44.6267 48.7553 45.6671 48.4098 46.6616 47.9701L47.855 44.0124C48.3905 43.6512 48.9107 43.2743 49.4003 42.8503L53.4395 42.9131C54.1586 42.065 54.8012 41.1541 55.3673 40.1961L54.0668 36.2699C54.2963 35.6574 54.4952 35.0292 54.6635 34.401L57.9683 32.0138C58.0142 31.4642 58.0448 30.8988 58.0448 30.3334C58.0448 29.768 58.0142 29.2027 57.9683 28.653L54.6635 26.2658C54.4952 25.6219 54.3116 24.9937 54.0668 24.3812L55.3673 20.455C54.8012 19.497 54.1586 18.5861 53.4395 17.7381L49.4003 17.8009C48.9107 17.3768 48.3905 16.9999 47.855 16.6387L46.6616 12.6811C45.6671 12.2413 44.6267 11.8958 43.5557 11.6445L40.3274 14.1416C40.0061 14.1259 39.6848 14.1102 39.3635 14.1102C39.0422 14.1102 38.7209 14.1102 38.3996 14.1416L35.1713 11.6445C34.1003 11.8958 33.06 12.2413 32.0655 12.6811L30.8721 16.6387C30.3213 16.9999 29.8164 17.3768 29.3115 17.8009L25.2723 17.7381C24.5532 18.5861 23.9106 19.4813 23.3445 20.455L24.645 24.3812C24.4155 24.9937 24.2166 25.6219 24.0483 26.2658L20.7435 28.653C20.6976 29.2027 20.667 29.768 20.667 30.3334C20.667 30.8988 20.6976 31.4642 20.7435 32.0138L24.0483 34.401V34.4167ZM29.3727 30.3491C29.3727 24.8995 33.5189 20.455 38.7362 20.1409C38.9351 20.1409 39.134 20.1252 39.3329 20.1252C44.8409 20.1252 49.2932 24.711 49.2932 30.3491C49.2932 35.9872 45.1775 40.2118 39.9602 40.5573C39.746 40.5573 39.5318 40.573 39.3176 40.573C33.8097 40.573 29.3574 35.9872 29.3574 30.3491H29.3727Z" fill="url(#paint0_linear_1209_6998)"/>
<path id="Vector_3" d="M38.7114 30.9766L50.3114 50.3099" stroke="#666666" stroke-width="2.5" stroke-linecap="round" stroke-linejoin="round"/>
<path id="Vector_4" d="M49.6018 50.0273L41.7524 64.5918" stroke="#666666" stroke-width="2.5" stroke-linecap="round" stroke-linejoin="round"/>
<path id="Vector_5" d="M51.9677 52.38C53.2713 51.0764 53.2713 48.9627 51.9677 47.6591C50.664 46.3554 48.5504 46.3554 47.2467 47.6591C45.9431 48.9627 45.9431 51.0764 47.2467 52.38C48.5504 53.6837 50.664 53.6837 51.9677 52.38Z" fill="url(#paint1_linear_1209_6998)"/>
<path id="Vector_6" d="M41.7524 64.5898L50.3107 78.5614" stroke="#666666" stroke-width="2.5" stroke-linecap="round" stroke-linejoin="round"/>
<path id="Vector_7" d="M42.5194 67.8326C44.3138 67.4091 45.4251 65.6112 45.0015 63.8169C44.578 62.0225 42.7801 60.9112 40.9858 61.3347C39.1914 61.7582 38.0801 63.5562 38.5036 65.3505C38.9271 67.1449 40.7251 68.2562 42.5194 67.8326Z" fill="url(#paint2_linear_1209_6998)"/>
<path id="Vector_8" d="M39.928 34.5265C42.0827 34.0179 43.4172 31.859 42.9086 29.7043C42.4001 27.5496 40.2411 26.2152 38.0864 26.7237C35.9318 27.2323 34.5973 29.3912 35.1059 31.5459C35.6144 33.7006 37.7734 35.035 39.928 34.5265Z" fill="url(#paint3_linear_1209_6998)"/>
</g>
</g>
<defs>
<linearGradient id="paint0_linear_1209_6998" x1="39.3559" y1="11.6445" x2="39.3559" y2="49.0223" gradientUnits="userSpaceOnUse">
<stop stop-color="#2F95E3"/>
<stop offset="1" stop-color="#61C7F2"/>
</linearGradient>
<linearGradient id="paint1_linear_1209_6998" x1="47.2467" y1="47.6591" x2="51.9677" y2="52.38" gradientUnits="userSpaceOnUse">
<stop stop-color="#2F95E3"/>
<stop offset="1" stop-color="#61C7F2"/>
</linearGradient>
<linearGradient id="paint2_linear_1209_6998" x1="40.9858" y1="61.3347" x2="42.5194" y2="67.8326" gradientUnits="userSpaceOnUse">
<stop stop-color="#2F95E3"/>
<stop offset="1" stop-color="#61C7F2"/>
</linearGradient>
<linearGradient id="paint3_linear_1209_6998" x1="38.0864" y1="26.7237" x2="39.928" y2="34.5265" gradientUnits="userSpaceOnUse">
<stop stop-color="#2F95E3"/>
<stop offset="1" stop-color="#61C7F2"/>
</linearGradient>
</defs>
</svg>
