<svg width="80" height="80" viewBox="0 0 80 80" fill="none" xmlns="http://www.w3.org/2000/svg">
<g id="Group 1020101881">
<g id="Group 1020101850">
<g id="Group 1020101848">
<path id="Vector" d="M68.6166 16.668H7.6748V57.2422H68.6166V16.668Z" fill="white" stroke="#666666" stroke-width="2.5" stroke-linecap="round" stroke-linejoin="round"/>
<path id="Vector_2" d="M59.594 47.2051H38.5369C37.4158 47.2051 36.5137 46.2513 36.5137 45.0784V28.9157C36.5137 27.7428 37.4286 26.7891 38.5369 26.7891H59.594C60.7151 26.7891 61.6172 27.7428 61.6172 28.9157V45.0784C61.6172 46.2513 60.7022 47.2051 59.594 47.2051Z" fill="url(#paint0_linear_1209_7180)"/>
<path id="Vector_3" d="M74.9559 13.0015C74.9559 15.0379 73.3064 16.6748 71.2831 16.6748H5.00624C2.98301 16.6748 1.3335 15.025 1.3335 13.0015C1.3335 10.9779 2.98301 9.32812 5.00624 9.32812H71.2831C73.3064 9.32812 74.9559 10.9779 74.9559 13.0015Z" fill="white" stroke="#666666" stroke-width="2.5" stroke-linecap="round" stroke-linejoin="round"/>
<path id="Vector_4" d="M74.9559 60.4663C74.9559 62.5027 73.3064 64.1396 71.2831 64.1396H5.00624C2.98301 64.1396 1.3335 62.4899 1.3335 60.4663C1.3335 58.4427 2.98301 56.793 5.00624 56.793H71.2831C73.3064 56.793 74.9559 58.4427 74.9559 60.4663Z" fill="white" stroke="#666666" stroke-width="2.5" stroke-linecap="round" stroke-linejoin="round"/>
<path id="Vector_5" d="M75.0991 35.5178C75.0991 40.8023 70.8207 45.0943 65.5371 45.0943C60.2535 45.0943 55.9751 40.8023 55.9751 35.5178C55.9751 30.2334 60.2535 25.9414 65.5371 25.9414C70.8207 25.9414 75.0991 30.2334 75.0991 35.5178Z" fill="white" stroke="#666666" stroke-width="2.5" stroke-linecap="round" stroke-linejoin="round"/>
<path id="Vector_6" d="M78.6536 58.2275C78.6536 50.9711 72.7772 45.0938 65.5348 45.0938C58.2924 45.0938 52.416 50.9711 52.416 58.2275V73.604H78.6665V58.2275H78.6536Z" fill="url(#paint1_linear_1209_7180)" stroke="#666666" stroke-width="2.5" stroke-linecap="round" stroke-linejoin="round"/>
<path id="Vector_7" d="M56.5912 58.2543C57.0551 61.2316 55.0319 64.0156 52.0679 64.4925C49.1039 64.9694 46.3075 62.9329 45.8436 59.9685C45.3796 56.9912 47.4029 54.2072 50.3668 53.7303C53.3308 53.2663 56.1272 55.2898 56.5912 58.2543Z" fill="white" stroke="#666666" stroke-width="2.5" stroke-linecap="round" stroke-linejoin="round"/>
<g id="Vector_8">
<path d="M17.0669 29.125H31.0362H17.0669Z" fill="white"/>
<path d="M17.0669 29.125H31.0362" stroke="#666666" stroke-width="2.5" stroke-linecap="round" stroke-linejoin="round"/>
</g>
<g id="Vector_9">
<path d="M17.0669 36.9961H31.0362H17.0669Z" fill="white"/>
<path d="M17.0669 36.9961H31.0362" stroke="#666666" stroke-width="2.5" stroke-linecap="round" stroke-linejoin="round"/>
</g>
<g id="Vector_10">
<path d="M17.0669 44.8633H27.2346H17.0669Z" fill="white"/>
<path d="M17.0669 44.8633H27.2346" stroke="#666666" stroke-width="2.5" stroke-linecap="round" stroke-linejoin="round"/>
</g>
<path id="Vector_11" d="M38.1396 4V9.31022" stroke="#666666" stroke-width="2.5" stroke-linecap="round" stroke-linejoin="round"/>
<path id="Vector_12" d="M16.2045 64.5469L11.3325 73.5949" stroke="#666666" stroke-width="2.5" stroke-linecap="round" stroke-linejoin="round"/>
<path id="Vector_13" d="M44.2065 40.2188L49.0785 52.7725" stroke="#666666" stroke-width="2.5" stroke-linecap="round" stroke-linejoin="round"/>
</g>
</g>
</g>
<defs>
<linearGradient id="paint0_linear_1209_7180" x1="49.0654" y1="26.7891" x2="49.0654" y2="47.2051" gradientUnits="userSpaceOnUse">
<stop stop-color="#2F95E3"/>
<stop offset="1" stop-color="#61C7F2"/>
</linearGradient>
<linearGradient id="paint1_linear_1209_7180" x1="65.5412" y1="45.0938" x2="65.5412" y2="73.604" gradientUnits="userSpaceOnUse">
<stop stop-color="#2F95E3"/>
<stop offset="1" stop-color="#61C7F2"/>
</linearGradient>
</defs>
</svg>
