<svg width="20" height="21" viewBox="0 0 20 21" fill="none" xmlns="http://www.w3.org/2000/svg">
<g id="Group 1020102424">
<g id="Group 1020102420">
<g id="Vector">
<path d="M9.44444 12.6715C9.60889 12.5616 9.80223 12.5029 10 12.5029C10.2652 12.5029 10.5196 12.6083 10.7071 12.7958C10.8947 12.9834 11 13.2377 11 13.5029C11 13.7007 10.9414 13.894 10.8315 14.0585C10.7216 14.2229 10.5654 14.3511 10.3827 14.4268C10.2 14.5025 9.9989 14.5223 9.80492 14.4837C9.61094 14.4451 9.43275 14.3499 9.2929 14.21C9.15305 14.0702 9.05781 13.892 9.01922 13.698C8.98064 13.504 9.00044 13.303 9.07613 13.1202C9.15182 12.9375 9.27999 12.7813 9.44444 12.6715Z" fill="#2F9BD8"/>
<path d="M9.2929 6.79582C9.48044 6.60829 9.73479 6.50293 10 6.50293C10.2652 6.50293 10.5196 6.60829 10.7071 6.79582C10.8947 6.98336 11 7.23771 11 7.50293V10.5029C11 10.7681 10.8947 11.0225 10.7071 11.21C10.5196 11.3976 10.2652 11.5029 10 11.5029C9.73479 11.5029 9.48044 11.3976 9.2929 11.21C9.10537 11.0225 9.00001 10.7681 9.00001 10.5029V7.50293C9.00001 7.23771 9.10537 6.98336 9.2929 6.79582Z" fill="#2F9BD8"/>
</g>
<path id="Vector_2" d="M10.0107 3C9.02713 3 8.05323 3.19399 7.14457 3.57088C6.23591 3.94777 5.41028 4.5002 4.71482 5.1966C3.31027 6.60305 2.52121 8.51065 2.52121 10.4997C2.51466 12.2314 3.11347 13.9109 4.21382 15.247L2.71594 16.7469C2.61201 16.8524 2.54162 16.9863 2.51362 17.1318C2.48563 17.2772 2.5013 17.4278 2.55866 17.5644C2.62086 17.6993 2.72171 17.8127 2.84838 17.8901C2.97506 17.9676 3.12186 18.0056 3.27015 17.9993H10.0107C11.997 17.9993 13.9019 17.2092 15.3065 15.8027C16.711 14.3963 17.5001 12.4887 17.5001 10.4997C17.5001 8.51065 16.711 6.60305 15.3065 5.1966C13.9019 3.79015 11.997 3 10.0107 3Z" stroke="#2C2C2C"/>
</g>
</g>
</svg>
