<svg width="21" height="21" viewBox="0 0 21 21" fill="none" xmlns="http://www.w3.org/2000/svg">
<g id="Group 1020102433">
<g id="Group 1020102429">
<path id="Vector" d="M15.7929 7.01743C15.7929 5.73153 15.2608 4.4983 14.3137 3.58903C13.3665 2.67977 12.0819 2.16895 10.7424 2.16895C9.40295 2.16895 8.11834 2.67977 7.17118 3.58903C6.22403 4.4983 5.69192 5.73153 5.69192 7.01743C5.69192 10.0591 4.96174 11.9325 4.28665 13.0146C4.02223 13.4384 4.37592 14.2902 4.87547 14.2902H16.6094C17.1089 14.2902 17.4626 13.4384 17.1982 13.0146C16.5231 11.9325 15.7929 10.0591 15.7929 7.01743Z" stroke="#2C2C2C" stroke-linecap="round" stroke-linejoin="round"/>
<path id="Ellipse 1874" d="M10.6667 18.8359C12.0474 18.8359 13.1667 17.7166 13.1667 16.3359H8.16667C8.16667 17.7166 9.28596 18.8359 10.6667 18.8359Z" fill="#2F9BD8"/>
</g>
</g>
</svg>
