<svg width="21" height="21" viewBox="0 0 21 21" fill="none" xmlns="http://www.w3.org/2000/svg">
<g id="Group 1020102416">
<g id="Group 1020102411">
<path id="Vector" d="M12.0003 2.16406H5.33366C4.89163 2.16406 4.46771 2.33966 4.15515 2.65222C3.84259 2.96478 3.66699 3.3887 3.66699 3.83073V17.1641C3.66699 17.6061 3.84259 18.03 4.15515 18.3426C4.46771 18.6551 4.89163 18.8307 5.33366 18.8307H15.3337C15.7757 18.8307 16.1996 18.6551 16.5122 18.3426C16.8247 18.03 17.0003 17.6061 17.0003 17.1641V7.16406" stroke="#2C2C2C" stroke-linecap="round" stroke-linejoin="round"/>
<path id="Vector_2" d="M12.0003 1.33105V5.49772C12.0003 6.41819 12.7465 7.16439 13.667 7.16439H17.8337" fill="#2F9BD8"/>
<path id="Vector_3" d="M13.667 11.3311H7.00034" stroke="#2C2C2C" stroke-linecap="round" stroke-linejoin="round"/>
<path id="Vector_4" d="M13.667 14.6641H7.00034" stroke="#2C2C2C" stroke-linecap="round" stroke-linejoin="round"/>
<path id="Vector_5" d="M8.667 7.99805H7.83367H7.00034" stroke="#2C2C2C" stroke-linecap="round" stroke-linejoin="round"/>
</g>
</g>
</svg>
