<svg width="21" height="21" viewBox="0 0 21 21" fill="none" xmlns="http://www.w3.org/2000/svg">
<g id="Group 1020102439">
<g id="Group 1020102427">
<path id="Vector" d="M10.25 15.4967C14.162 15.4967 17.3333 12.3256 17.3333 8.41389C17.3333 4.50215 14.162 1.33105 10.25 1.33105C6.33797 1.33105 3.16666 4.50215 3.16666 8.41389C3.16666 12.3256 6.33797 15.4967 10.25 15.4967Z" stroke="#2C2C2C" stroke-linecap="round" stroke-linejoin="round"/>
<path id="Vector_2" d="M6.77582 14.6695L5.931 18.4735C5.82475 18.9519 6.3201 19.3401 6.75929 19.1227L9.99114 17.5223C10.1543 17.4415 10.3457 17.4415 10.5088 17.5223L13.741 19.1228C14.1802 19.3403 14.6755 18.9521 14.5693 18.4737L13.7242 14.6641" stroke="#2C2C2C" stroke-linecap="round" stroke-linejoin="round"/>
<path id="Star 1" d="M9.84227 4.65713C10.0091 4.31921 10.4909 4.31921 10.6577 4.65713L11.4912 6.34585C11.5574 6.48004 11.6855 6.57305 11.8335 6.59457L13.6972 6.86536C14.0702 6.91955 14.2191 7.37787 13.9492 7.64091L12.6007 8.95532C12.4935 9.05978 12.4446 9.21029 12.4699 9.35779L12.7883 11.2138C12.852 11.5852 12.4621 11.8685 12.1286 11.6931L10.4616 10.8168C10.3291 10.7472 10.1709 10.7472 10.0384 10.8168L8.37142 11.6931C8.03786 11.8685 7.64801 11.5852 7.71172 11.2138L8.03007 9.35779C8.05537 9.21029 8.00647 9.05978 7.8993 8.95532L6.55076 7.64091C6.28088 7.37787 6.42979 6.91955 6.80274 6.86536L8.66643 6.59457C8.81452 6.57305 8.94254 6.48004 9.00878 6.34585L9.84227 4.65713Z" fill="#2F9BD8"/>
</g>
</g>
</svg>
