<svg width="21" height="21" viewBox="0 0 21 21" fill="none" xmlns="http://www.w3.org/2000/svg">
<g id="Group 1020102475">
<g id="Group 1020102474">
<path id="Vector" d="M14.869 6.57031C16.9363 7.62325 18.3333 9.74129 18.3333 12.1822V18.5025H11.889C9.70839 18.5025 7.77845 17.4571 6.59995 15.8535" stroke="#2C2C2C" stroke-linecap="round" stroke-linejoin="round"/>
<g id="Group 1020102472">
<path id="Vector_2" d="M2.33334 9.00847V15.5169H8.70716C12.2558 15.5169 15.1333 12.6026 15.1333 9.00847C15.1333 5.41435 12.2582 2.5 8.70716 2.5C5.1561 2.5 2.33334 5.41435 2.33334 9.00847Z" stroke="#2C2C2C" stroke-linecap="round" stroke-linejoin="round"/>
</g>
<g id="Group 1020102473">
<path id="Vector_3" d="M5.63333 10.2969C6.18562 10.2969 6.63333 9.84916 6.63333 9.29687C6.63333 8.74459 6.18562 8.29688 5.63333 8.29688C5.08105 8.29688 4.63333 8.74459 4.63333 9.29687C4.63333 9.84916 5.08105 10.2969 5.63333 10.2969Z" fill="#2F9BD8"/>
<path id="Vector_4" d="M8.63333 10.2969C9.18562 10.2969 9.63333 9.84916 9.63333 9.29687C9.63333 8.74459 9.18562 8.29688 8.63333 8.29688C8.08105 8.29688 7.63333 8.74459 7.63333 9.29687C7.63333 9.84916 8.08105 10.2969 8.63333 10.2969Z" fill="#2F9BD8"/>
<path id="Vector_5" d="M11.6333 10.2969C12.1856 10.2969 12.6333 9.84916 12.6333 9.29687C12.6333 8.74459 12.1856 8.29688 11.6333 8.29688C11.081 8.29688 10.6333 8.74459 10.6333 9.29687C10.6333 9.84916 11.081 10.2969 11.6333 10.2969Z" fill="#2F9BD8"/>
</g>
</g>
</g>
</svg>
